<svg width="30" height="20" viewBox="0 0 30 20" xmlns="http://www.w3.org/2000/svg"><path d="M1.82641 1.95112C1.287 1.95112 0.851562 1.51244 0.851562 0.973021C0.851562 0.436852 1.287 -0.00183105 1.82641 -0.00183105H8.41317C8.85835 -0.00183105 9.23204 0.293874 9.34902 0.700062L14.7107 14.1465H25.4211L26.9841 6.34121H14.7562C14.2168 6.34121 13.7814 5.90577 13.7814 5.36635C13.7814 4.82694 14.2168 4.38825 14.7562 4.38825H28.1734C28.2352 4.38825 28.3001 4.39475 28.3651 4.40775C28.8916 4.51498 29.236 5.02841 29.1288 5.55483L27.1856 15.2806C27.1108 15.7453 26.7079 16.0995 26.2205 16.0995H14.0543V16.0962C13.6676 16.0962 13.3037 15.8623 13.1509 15.4821L7.75676 1.95112H1.82641Z"/><path d="M16.0531 20.0001C16.9774 20.0001 17.7266 19.2508 17.7266 18.3266C17.7266 17.4023 16.9774 16.6531 16.0531 16.6531C15.1289 16.6531 14.3796 17.4023 14.3796 18.3266C14.3796 19.2508 15.1289 20.0001 16.0531 20.0001Z"/><path d="M24.8234 20.0001C25.7476 20.0001 26.4969 19.2508 26.4969 18.3266C26.4969 17.4023 25.7476 16.6531 24.8234 16.6531C23.8992 16.6531 23.1499 17.4023 23.1499 18.3266C23.1499 19.2508 23.8992 20.0001 24.8234 20.0001Z"/></svg>