<svg width="46" height="45" viewBox="0 0 46 45" fill="none" xmlns="http://www.w3.org/2000/svg"><path d="M40.2315 11.0126C40.1319 10.4088 39.6152 9.96056 38.9989 9.96056H30.2834V7.47042C30.2834 3.34924 26.9341 0 22.8129 0C18.6918 0 15.3425 3.34924 15.3425 7.47042V9.96056H6.62703C6.01072 9.96056 5.49401 10.4088 5.39441 11.0126L0.414125 42.7619C0.358097 43.123 0.463928 43.4903 0.700491 43.7642C0.937054 44.0381 1.28567 44.2 1.64674 44.2H43.9791C44.3402 44.2 44.6888 44.0381 44.9254 43.7642C45.162 43.4903 45.2678 43.123 45.2118 42.7619L40.2315 11.0126ZM17.8327 7.47042C17.8327 4.72504 20.0676 2.49014 22.8129 2.49014C25.5583 2.49014 27.7932 4.72504 27.7932 7.47042V9.96056H17.8327V7.47042ZM3.10348 41.7099L7.69156 12.4507H15.3425V16.6408C15.3425 17.3256 15.9028 17.8859 16.5876 17.8859C17.2724 17.8859 17.8327 17.3256 17.8327 16.6408V12.4507H27.7932V16.6408C27.7932 17.3256 28.3535 17.8859 29.0383 17.8859C29.7231 17.8859 30.2834 17.3256 30.2834 16.6408V12.4507H37.9343L42.5224 41.7099H3.10348Z" fill="#7F8DA2"/></svg>