<svg width="16" height="16" viewBox="0 0 16 16" fill="none" xmlns="http://www.w3.org/2000/svg"><g clip-path="url(#clip0)"><path d="M10.12 10.12C10.0669 10.1736 10.0037 10.2161 9.93405 10.2451C9.86441 10.2741 9.78972 10.289 9.71429 10.289C9.63885 10.289 9.56417 10.2741 9.49453 10.2451C9.4249 10.2161 9.3617 10.1736 9.30858 10.12L7.59429 8.40571C7.54133 8.35232 7.49943 8.289 7.47099 8.21938C7.44256 8.14975 7.42814 8.0752 7.42858 8V4C7.42858 3.84845 7.48878 3.7031 7.59594 3.59594C7.70311 3.48878 7.84845 3.42857 8 3.42857C8.15156 3.42857 8.2969 3.48878 8.40407 3.59594C8.51123 3.7031 8.57143 3.84845 8.57143 4V7.76571L10.12 9.30857C10.1736 9.36169 10.2161 9.42489 10.2451 9.49453C10.2741 9.56416 10.289 9.63885 10.289 9.71429C10.289 9.78972 10.2741 9.86441 10.2451 9.93404C10.2161 10.0037 10.1736 10.0669 10.12 10.12ZM8.57143 7.76571V4C8.57143 3.84845 8.51123 3.7031 8.40407 3.59594C8.2969 3.48878 8.15156 3.42857 8 3.42857C7.84845 3.42857 7.70311 3.48878 7.59594 3.59594C7.48878 3.7031 7.42858 3.84845 7.42858 4V8C7.42814 8.0752 7.44256 8.14975 7.47099 8.21938C7.49943 8.289 7.54133 8.35232 7.59429 8.40571L9.30858 10.12C9.3617 10.1736 9.4249 10.2161 9.49453 10.2451C9.56417 10.2741 9.63885 10.289 9.71429 10.289C9.78972 10.289 9.86441 10.2741 9.93405 10.2451C10.0037 10.2161 10.0669 10.1736 10.12 10.12C10.1736 10.0669 10.2161 10.0037 10.2451 9.93404C10.2741 9.86441 10.289 9.78972 10.289 9.71429C10.289 9.63885 10.2741 9.56416 10.2451 9.49453C10.2161 9.42489 10.1736 9.36169 10.12 9.30857L8.57143 7.76571ZM16 8C16 9.58225 15.5308 11.129 14.6518 12.4446C13.7727 13.7602 12.5233 14.7855 11.0615 15.391C9.59966 15.9965 7.99113 16.155 6.43928 15.8463C4.88743 15.5376 3.46197 14.7757 2.34315 13.6569C1.22433 12.538 0.462403 11.1126 0.153721 9.56072C-0.15496 8.00887 0.00346627 6.40034 0.608967 4.93853C1.21447 3.47672 2.23985 2.22729 3.55544 1.34824C4.87103 0.469192 6.41775 0 8 0C10.1217 0 12.1566 0.842855 13.6569 2.34315C15.1571 3.84344 16 5.87827 16 8ZM14.2857 8C14.2857 6.7568 13.9171 5.54152 13.2264 4.50784C12.5357 3.47416 11.554 2.66851 10.4054 2.19276C9.25688 1.71701 7.99303 1.59253 6.77372 1.83506C5.55441 2.0776 4.43441 2.67626 3.55533 3.55533C2.67626 4.4344 2.0776 5.55441 1.83507 6.77372C1.59253 7.99303 1.71701 9.25688 2.19276 10.4054C2.66851 11.554 3.47417 12.5357 4.50785 13.2264C5.54153 13.9171 6.75681 14.2857 8 14.2857C9.66708 14.2857 11.2659 13.6235 12.4447 12.4447C13.6235 11.2659 14.2857 9.66708 14.2857 8ZM10.12 9.30857L8.57143 7.76571V4C8.57143 3.84845 8.51123 3.7031 8.40407 3.59594C8.2969 3.48878 8.15156 3.42857 8 3.42857C7.84845 3.42857 7.70311 3.48878 7.59594 3.59594C7.48878 3.7031 7.42858 3.84845 7.42858 4V8C7.42814 8.0752 7.44256 8.14975 7.47099 8.21938C7.49943 8.289 7.54133 8.35232 7.59429 8.40571L9.30858 10.12C9.3617 10.1736 9.4249 10.2161 9.49453 10.2451C9.56417 10.2741 9.63885 10.289 9.71429 10.289C9.78972 10.289 9.86441 10.2741 9.93405 10.2451C10.0037 10.2161 10.0669 10.1736 10.12 10.12C10.1736 10.0669 10.2161 10.0037 10.2451 9.93404C10.2741 9.86441 10.289 9.78972 10.289 9.71429C10.289 9.63885 10.2741 9.56416 10.2451 9.49453C10.2161 9.42489 10.1736 9.36169 10.12 9.30857Z" fill="#787632"/></g><defs><clipPath id="clip0"><path fill="#fff" d="M0 0H16V16H0z"/></clipPath></defs></svg>