<svg width="12" height="18" viewBox="0 0 12 18" fill="none" xmlns="http://www.w3.org/2000/svg"><path d="M6 15C9.3135 15 12 12.3135 12 9C12 5.6865 9.3135 3 6 3C2.6865 3 0 5.6865 0 9C0 12.3135 2.6865 15 6 15ZM6 4C8.7615 4 11 6.2385 11 9C11 11.7615 8.7615 14 6 14C3.2385 14 1 11.7615 1 9C1 6.2385 3.2385 4 6 4ZM3.6715 11.3285C3.76526 11.4222 3.89242 11.4749 4.025 11.4749C4.15758 11.4749 4.28474 11.4222 4.3785 11.3285L6 9.707L7.6215 11.3285C7.7158 11.4196 7.8421 11.47 7.9732 11.4688C8.1043 11.4677 8.22971 11.4151 8.32241 11.3224C8.41511 11.2297 8.4677 11.1043 8.46884 10.9732C8.46998 10.8421 8.41958 10.7158 8.3285 10.6215L6.707 9L8.3285 7.3785C8.41958 7.2842 8.46998 7.1579 8.46884 7.0268C8.4677 6.8957 8.41511 6.77029 8.32241 6.67759C8.22971 6.58489 8.1043 6.5323 7.9732 6.53116C7.8421 6.53002 7.7158 6.58042 7.6215 6.6715L6 8.293L4.3785 6.6715C4.33208 6.62508 4.27697 6.58825 4.21631 6.56313C4.15566 6.53801 4.09065 6.52508 4.025 6.52508C3.95935 6.52508 3.89434 6.53801 3.83369 6.56313C3.77303 6.58825 3.71792 6.62508 3.6715 6.6715C3.62508 6.71792 3.58825 6.77303 3.56313 6.83369C3.53801 6.89434 3.52508 6.95935 3.52508 7.025C3.52508 7.09065 3.53801 7.15566 3.56313 7.21631C3.58825 7.27697 3.62508 7.33208 3.6715 7.3785L5.293 9L3.6715 10.6215C3.57776 10.7153 3.52511 10.8424 3.52511 10.975C3.52511 11.1076 3.57776 11.2347 3.6715 11.3285Z" fill="#333"/></svg>