<svg width="40" height="40" viewBox="0 0 40 40" fill="none" xmlns="http://www.w3.org/2000/svg"><path d="M17.4515 18.8584C17.2451 19.0691 17.2483 19.4062 17.459 19.6125C18.0558 20.1976 19.0061 20.5469 20.0024 20.5469C20.9986 20.5469 21.9484 20.1976 22.5457 19.6125C22.7564 19.4062 22.7591 19.0686 22.5532 18.8584C22.3468 18.6483 22.0087 18.6446 21.7991 18.851C21.397 19.2446 20.7255 19.4803 20.0029 19.4803C19.2802 19.4803 18.6088 19.2451 18.2067 18.851C17.9955 18.6446 17.6574 18.6483 17.4515 18.8584Z" fill="#6B6B6B"/><path d="M17.0675 15.2137C17.5094 15.2137 17.8675 14.8556 17.8675 14.4137C17.8675 13.9719 17.5094 13.6138 17.0675 13.6138C16.6257 13.6138 16.2676 13.9719 16.2676 14.4137C16.2676 14.8556 16.6257 15.2137 17.0675 15.2137Z" fill="#6B6B6B"/><path d="M22.9347 15.2137C23.3765 15.2137 23.7347 14.8556 23.7347 14.4137C23.7347 13.9719 23.3765 13.6138 22.9347 13.6138C22.4929 13.6138 22.1348 13.9719 22.1348 14.4137C22.1348 14.8556 22.4929 15.2137 22.9347 15.2137Z" fill="#6B6B6B"/><path d="M32.3215 26.5114L26.2433 25.1462C25.342 24.9286 24.2679 24.4865 24.2679 23.6134V21.9009C25.1153 21.1575 25.8326 20.1303 26.3014 18.9805C26.5521 18.3677 26.7713 17.7187 26.9558 17.0483C27.6086 16.667 27.9894 15.8516 27.9894 15.1913C27.9894 14.5108 27.7142 14.2148 27.4758 13.9871C27.4752 13.53 27.4731 13.3604 27.4715 13.1898C27.471 13.1199 27.4699 13.0485 27.4694 12.9578L27.4758 12.9562V11.3429C25.9105 10.4406 25.2081 10.0752 24.8988 9.93124C24.6321 9.80645 24.5169 9.48912 24.6417 9.22193C24.7665 8.95527 25.0823 8.84115 25.3511 8.96487C25.758 9.15473 26.4731 9.54299 27.4758 10.1136V8.81395C27.4758 5.26367 24.5873 2.37524 21.0371 2.37524H19.0713C15.4661 2.37524 12.5334 5.26367 12.5334 8.81395V10.1072C12.975 9.85284 13.4336 9.58885 13.5643 9.51632C15.3423 8.51423 16.946 7.74785 20.0008 7.74785C21.1101 7.74785 22.205 7.89451 23.2551 8.18464C23.5394 8.2625 23.7063 8.55636 23.6274 8.84008C23.5495 9.12434 23.2535 9.2902 22.9719 9.21233C22.0002 8.94408 21.0285 8.81395 20.0014 8.81395C17.1993 8.81395 15.7834 9.49019 14.088 10.4454C13.9024 10.5499 13.0486 11.0427 12.5339 11.3397C12.5344 11.5019 12.5286 11.6624 12.5339 11.8256V12.025C12.5318 12.2864 12.5323 12.4773 12.5339 12.6271V13.081H12.5398C12.5419 13.2965 12.5398 13.5588 12.5259 14.081C12.2694 14.3231 12.0027 14.6217 12.0027 15.3284C12.0027 16.0457 12.519 16.771 13.223 17.099C13.3739 17.6744 13.5472 18.2787 13.7515 18.9373C14.1253 20.141 14.8085 21.1708 15.7354 21.9329V23.6129C15.7354 24.5867 14.5365 25.0219 13.8192 25.1947L7.3981 26.7786C5.3667 27.2693 4.00195 28.8911 4.00195 30.8132V36.5468C4.00195 36.8412 4.24088 37.0801 4.53527 37.0801H35.4675C35.7619 37.0801 36.0008 36.8412 36.0008 36.5468V30.5022C36.0008 28.6746 34.491 27.0341 32.3215 26.5114ZM20.0051 6.68069C18.9769 6.68069 18.1385 6.32124 18.1385 5.88072C18.1385 5.4402 18.9769 5.08075 20.0051 5.08075C21.0333 5.08075 21.8717 5.4402 21.8717 5.88072C21.8717 6.32124 21.0333 6.68069 20.0051 6.68069ZM19.9971 23.8177C20.0083 23.8177 20.0184 23.8177 20.0296 23.8177C21.2109 23.8177 22.2461 23.3116 23.2013 22.6652V23.6134C23.2013 24.2822 23.5074 24.8534 24.0722 25.3099C24.0914 25.3254 24.1122 25.3408 24.1319 25.3563C24.2183 25.4224 24.3058 25.488 24.4044 25.5488L22.1474 26.6245C21.8562 26.7637 21.6045 26.9381 21.3875 27.137C21.4029 27.1456 21.4141 27.1578 21.428 27.168L23.1725 27.9498L26.1836 26.2261L26.8977 26.3867L27.7264 26.5733L23.4679 29.0111C23.3853 29.057 23.2935 29.0804 23.2018 29.0804C23.1271 29.0804 23.0535 29.065 22.9837 29.0335L20.748 28.0309C20.6104 28.3519 20.5347 28.7018 20.5347 29.0751V34.2797C20.5347 34.5746 20.2963 34.813 20.0014 34.813C19.7065 34.813 19.4681 34.5746 19.4681 34.2797V29.0751C19.4681 28.6106 19.5593 28.1695 19.7155 27.7573L17.0298 29.0292C16.9572 29.0634 16.8794 29.0804 16.8015 29.0804C16.7098 29.0804 16.618 29.057 16.5364 29.01L12.4027 26.6432L13.9029 26.2731L16.825 27.9466L18.7241 27.0469L15.6399 25.5819C15.6405 25.5813 15.641 25.5808 15.6415 25.5808C16.3898 25.0859 16.8015 24.4107 16.8015 23.6134V22.6689C17.9748 23.4284 19.0281 23.8097 19.9971 23.8177ZM21.8685 30.9465C21.5741 30.9465 21.3347 30.707 21.3347 30.4132C21.3347 30.1193 21.5741 29.8799 21.8685 29.8799C22.1618 29.8799 22.4018 30.1193 22.4018 30.4132C22.4018 30.707 22.1618 30.9465 21.8685 30.9465ZM22.4018 33.0797C22.4018 33.3736 22.1618 33.6131 21.8685 33.6131C21.5741 33.6131 21.3347 33.3736 21.3347 33.0797C21.3347 32.7859 21.5741 32.5464 21.8685 32.5464C22.1618 32.5464 22.4018 32.7859 22.4018 33.0797ZM14.7696 18.6216C14.5386 17.8771 14.3482 17.2056 14.1861 16.5673C14.1392 16.3822 13.9973 16.2366 13.8133 16.1849C13.424 16.0756 13.0688 15.667 13.0688 15.3284C13.0688 15.0313 13.1014 15.002 13.3115 14.8063L13.4235 14.7012C13.5237 14.6047 13.5819 14.4724 13.5856 14.3337C13.6069 13.617 13.6091 13.3066 13.6064 13.0506C14.6533 12.9402 15.5461 12.529 16.4116 12.128C17.4767 11.6341 18.5785 11.1237 20.0958 11.1131C21.4339 11.1131 22.2792 11.6368 23.1741 12.192C23.9868 12.6954 24.8279 13.217 25.9702 13.217C26.1121 13.217 26.2582 13.2026 26.4049 13.1855C26.4049 13.1909 26.4049 13.1967 26.4049 13.2015C26.407 13.3951 26.4091 13.5882 26.4091 14.2138C26.4091 14.354 26.4646 14.4879 26.5622 14.5876C26.6107 14.6372 26.6582 14.682 26.7035 14.7247C26.8934 14.9044 26.9227 14.9321 26.9227 15.1913C26.9227 15.586 26.6326 16.0622 26.326 16.171C26.159 16.2297 26.0326 16.3678 25.9878 16.539C25.8028 17.2494 25.5766 17.9347 25.3137 18.5773C24.9057 19.5757 24.285 20.4519 23.5607 21.0871C23.5522 21.093 23.5421 21.094 23.5341 21.0999C22.453 21.9351 21.2915 22.7505 20.028 22.7505C20.02 22.7505 20.0126 22.7505 20.0051 22.7505C19.043 22.743 17.9247 22.2412 16.585 21.2151C16.5626 21.198 16.5359 21.1927 16.5119 21.1799C15.6991 20.5442 15.0944 19.6653 14.7696 18.6216Z" fill="#6B6B6B"/></svg>