<svg width="17" height="11" viewBox="0 0 17 11" fill="none" xmlns="http://www.w3.org/2000/svg"><g clip-path="url(#clip0)"><path d="M8.50001 10.0789C8.21091 10.0848 7.91996 9.97741 7.69928 9.75675L0.322664 2.38013C-0.107556 1.94993 -0.107556 1.2522 0.322664 0.821999L0.323036 0.821813C0.753237 0.391427 1.45078 0.391427 1.88098 0.821813L8.50001 7.44084L15.119 0.821813C15.5492 0.391427 16.2468 0.391427 16.677 0.821813L16.6773 0.821999C17.1076 1.2522 17.1076 1.94993 16.6773 2.38013L9.30073 9.75677C9.08005 9.97741 8.7891 10.0849 8.50001 10.0789Z" fill="#B3B3B3"/></g><defs><clipPath id="clip0"><path fill="#fff" transform="rotate(90 8.25 8.75)" d="M0 0H10V17H0z"/></clipPath></defs></svg>