<svg width="18" height="18" viewBox="0 0 18 18" fill="none" xmlns="http://www.w3.org/2000/svg"><g clip-path="url(#clip0)" fill="#EA1337"><path d="M9.83984 17.7713C11.8198 17.7713 13.8198 17.7713 15.7998 17.7713C16.0398 17.7713 16.1998 17.6913 16.3398 17.5513L16.3598 17.5313L16.3798 17.5113C16.4998 17.3913 16.5998 17.2113 16.5998 16.9713C16.5998 15.4313 16.5998 13.8713 16.5998 12.3313H9.83984V17.7713Z"/><path d="M16.5798 6.19138C16.5798 5.77138 16.2198 5.41138 15.7998 5.41138C13.8198 5.41138 11.8198 5.41138 9.83984 5.41138V10.7314H16.5998C16.5798 9.21138 16.5798 7.71138 16.5798 6.19138Z"/><path d="M1.2998 16.9913C1.2998 17.4113 1.6598 17.7713 2.0798 17.7713C4.0598 17.7713 6.0598 17.7713 8.0398 17.7713V12.3513H1.2998C1.2998 13.8913 1.2998 15.4513 1.2998 16.9913Z"/><path d="M8.04078 5.41138C6.06078 5.41138 4.06078 5.41138 2.08078 5.41138C1.66078 5.41138 1.30078 5.77138 1.30078 6.19138C1.30078 7.71138 1.30078 9.21138 1.30078 10.7314H8.06078V5.41138H8.04078Z"/><path d="M7.97987 4.47138C8.15987 4.53138 8.31987 4.47138 8.39987 4.35138C8.51987 4.25138 8.57987 4.11138 8.51987 3.93138C8.03987 2.55138 6.45987 -1.30862 4.51987 0.451375C2.53987 2.25138 6.77987 4.05138 7.97987 4.47138Z"/><path d="M9.90045 4.4714C11.1005 4.0514 15.3405 2.2714 13.3605 0.471401C11.4205 -1.2886 9.84045 2.5514 9.36045 3.9314C9.30045 4.1114 9.36045 4.2714 9.48045 4.3514C9.56045 4.4714 9.72045 4.5314 9.90045 4.4714Z"/></g><defs><clipPath id="clip0"><path fill="#fff" d="M0 0H18V18H0z"/></clipPath></defs></svg>