<svg width="17" height="17" viewBox="0 0 17 17" fill="none" xmlns="http://www.w3.org/2000/svg"><path d="M8.5 0C6.81886 0 5.17547 0.498516 3.77766 1.43251C2.37984 2.3665 1.29037 3.69402 0.647028 5.24719C0.00368291 6.80036 -0.164645 8.50943 0.163329 10.1583C0.491303 11.8071 1.30085 13.3217 2.4896 14.5104C3.67834 15.6992 5.1929 16.5087 6.84173 16.8367C8.49057 17.1646 10.1996 16.9963 11.7528 16.353C13.306 15.7096 14.6335 14.6202 15.5675 13.2223C16.5015 11.8245 17 10.1811 17 8.5C17 6.24566 16.1045 4.08365 14.5104 2.48959C12.9163 0.895533 10.7543 0 8.5 0ZM8.5 13.2812C8.28986 13.2812 8.08444 13.2189 7.90971 13.1022C7.73498 12.9854 7.5988 12.8195 7.51838 12.6253C7.43796 12.4312 7.41692 12.2176 7.45792 12.0115C7.49891 11.8054 7.60011 11.616 7.7487 11.4674C7.89729 11.3189 8.08661 11.2177 8.29272 11.1767C8.49882 11.1357 8.71246 11.1567 8.9066 11.2371C9.10075 11.3175 9.26669 11.4537 9.38344 11.6285C9.50019 11.8032 9.5625 12.0086 9.5625 12.2187C9.5625 12.5005 9.45056 12.7708 9.2513 12.97C9.05205 13.1693 8.78179 13.2812 8.5 13.2812ZM9.5625 9.5625H7.4375V3.71875H9.5625V9.5625Z" fill="#FF0404"/></svg>