<svg width="21" height="21" viewBox="0 0 21 21" fill="none" xmlns="http://www.w3.org/2000/svg"><path d="M7.50189 10.1902C7.19936 12.5737 7.32848 15.6071 7.7017 17.3813C9.73601 17.603 15.0291 17.6352 16.1939 17.4589C16.2432 17.4514 16.2889 17.4461 16.3547 17.4394C16.5634 17.4183 16.6195 17.4095 16.6832 17.3874C16.7424 17.3668 16.7701 17.3441 16.8094 17.2686C16.9061 17.083 16.9628 16.74 16.9398 16.2099C16.9268 15.9103 17.0681 15.6249 17.3142 15.4536C17.8731 15.0648 17.9496 14.6787 17.7138 13.8701C17.5748 13.3935 17.8597 12.9012 18.333 12.7784C18.3439 12.7673 18.3578 12.7508 18.3735 12.7289C18.4456 12.6285 18.5119 12.4744 18.5521 12.3017C18.6252 11.9874 18.5852 11.7367 18.5652 11.7195C18.1732 11.382 18.158 10.7799 18.5325 10.423C18.6217 10.338 18.7694 9.94797 18.7696 9.65956C18.7701 9.11802 18.6514 8.96563 18.1345 8.87846C17.7274 8.80982 17.2605 8.76559 16.7462 8.74421C15.8883 8.70854 14.96 8.73731 14.0526 8.80729C13.8309 8.82438 13.6283 8.84267 13.4493 8.8609C13.3436 8.87167 13.2704 8.87988 13.2342 8.88427C12.8829 8.92689 12.5405 8.75372 12.3667 8.44551C12.3138 8.35171 12.2774 8.24724 12.2544 8.13039C12.1627 7.66393 12.2594 6.83036 12.632 5.3977C12.9506 4.17241 12.0972 2.94383 11.0772 2.48558C11.0406 2.4691 11.014 2.45868 10.9927 2.45402C11.0034 2.7565 11.0084 3.06152 11.0047 3.35075C11.0013 3.61785 10.9906 3.85836 10.9708 4.06846C10.8487 5.36801 10.6022 6.11844 9.86274 7.5437C9.59359 8.06011 9.18977 8.58043 8.6854 9.10521C8.38035 9.4226 8.05618 9.72291 7.73209 9.99852C7.64704 10.0708 7.56977 10.135 7.50189 10.1902ZM6.97917 8.32781C7.13141 8.18697 7.28074 8.04126 7.42368 7.89254C7.82247 7.47762 8.13086 7.08025 8.31305 6.73068C8.95199 5.4991 9.1294 4.95899 9.22853 3.90464C9.2433 3.74756 9.25202 3.55199 9.25486 3.32845C9.25845 3.04727 9.25273 2.74205 9.24096 2.44087C9.23537 2.29771 9.22983 2.18934 9.22629 2.13068C9.21566 1.95486 9.25834 1.77992 9.34875 1.62876C9.4306 1.4919 9.56019 1.32709 9.74919 1.16456C10.29 0.699536 11.0167 0.539879 11.7944 0.889274C13.5113 1.66061 14.8942 3.65164 14.3256 5.83816C14.1996 6.32284 14.1102 6.72555 14.0525 7.05239C14.9804 6.98491 15.9259 6.9586 16.8189 6.99572C17.4017 7.01995 17.9397 7.07092 18.4254 7.15282C19.8155 7.38723 20.5208 8.29255 20.5196 9.66108C20.5192 10.1327 20.389 10.6481 20.177 11.073C20.5472 12.0158 20.2606 13.3403 19.5429 14.0381C19.6991 15.0449 19.4668 15.8945 18.6919 16.5919C18.6524 17.9151 18.1553 18.7287 17.2573 19.0406C17.1172 19.0892 16.977 19.122 16.8274 19.1453C16.7341 19.1598 16.7227 19.1611 16.5314 19.1805C16.492 19.1845 16.4697 19.1871 16.4559 19.1892C15.1744 19.3832 10.1206 19.3634 7.72805 19.1395C7.64661 19.221 7.54771 19.2876 7.43416 19.333C5.49242 20.1095 4.80318 20.1716 1.71379 19.7896C1.37092 19.7472 1.08511 19.507 0.984264 19.1766C0.0944726 16.261 0.205722 13.0657 0.920911 8.78395C1.00612 8.27379 1.51289 7.94848 2.01221 8.0834C3.57164 8.50479 4.58802 8.54124 6.6776 8.30943C6.78239 8.29781 6.88385 8.30494 6.97917 8.32781ZM2.49995 9.99695C2.00344 13.2969 1.93914 15.8713 2.50689 18.1227C4.39274 18.3437 5.03723 18.3332 6.04644 17.9871C5.59379 16.0373 5.43445 12.7921 5.74328 10.155C4.48876 10.2468 3.54969 10.2067 2.49995 9.99695ZM4.02968 17.4372C3.4656 17.4372 3.0307 17.1266 2.97559 16.4064C2.92047 15.6863 3.54447 15.3726 4.12436 15.3726C4.70426 15.3726 4.97504 15.808 5.07558 16.4064C5.17613 17.0049 4.59376 17.4372 4.02968 17.4372Z" fill="#787632"/></svg>