<svg width="21" height="21" viewBox="0 0 21 21" fill="none" xmlns="http://www.w3.org/2000/svg"><path d="M13.4981 10.8098C13.8006 8.4263 13.6715 5.39285 13.2983 3.61868C11.264 3.397 5.9709 3.36477 4.80606 3.54109C4.75678 3.54855 4.71113 3.55387 4.64527 3.56056C4.43663 3.58172 4.38047 3.59046 4.31684 3.61256C4.25757 3.63315 4.22986 3.65594 4.19058 3.73136C4.09387 3.91701 4.03715 4.25996 4.0602 4.79008C4.07323 5.08968 3.93192 5.37509 3.68575 5.54636C3.12691 5.93516 3.05036 6.32127 3.28618 7.1299C3.42519 7.60652 3.14034 8.09878 2.66699 8.22159C2.65614 8.23273 2.64223 8.24922 2.62654 8.27107C2.5544 8.37153 2.4881 8.52562 2.44792 8.69833C2.37481 9.01263 2.41483 9.2633 2.43475 9.28045C2.82679 9.61797 2.84201 10.2201 2.46753 10.577C2.3783 10.662 2.23062 11.052 2.23037 11.3404C2.2299 11.882 2.34862 12.0344 2.86555 12.1215C3.27259 12.1902 3.73952 12.2344 4.25383 12.2558C5.11172 12.2915 6.04001 12.2627 6.9474 12.1927C7.16912 12.1756 7.37171 12.1573 7.55065 12.1391C7.65641 12.1283 7.72964 12.1201 7.76584 12.1157C8.11712 12.0731 8.4595 12.2463 8.63334 12.5545C8.68624 12.6483 8.72257 12.7528 8.74555 12.8696C8.83731 13.3361 8.74062 14.1696 8.36804 15.6023C8.04939 16.8276 8.90275 18.0562 9.92276 18.5144C9.95945 18.5309 9.986 18.5413 10.0073 18.546C9.99656 18.2435 9.99159 17.9385 9.99528 17.6492C9.99868 17.3822 10.0094 17.1416 10.0292 16.9315C10.1513 15.632 10.3978 14.8816 11.1373 13.4563C11.4064 12.9399 11.8102 12.4196 12.3146 11.8948C12.6197 11.5774 12.9438 11.2771 13.2679 11.0015C13.353 10.9292 13.4302 10.865 13.4981 10.8098ZM14.0208 12.6722C13.8686 12.813 13.7193 12.9587 13.5763 13.1075C13.1775 13.5224 12.8691 13.9197 12.687 14.2693C12.048 15.5009 11.8706 16.041 11.7715 17.0954C11.7567 17.2524 11.748 17.448 11.7451 17.6715C11.7416 17.9527 11.7473 18.258 11.759 18.5591C11.7646 18.7023 11.7702 18.8107 11.7737 18.8693C11.7843 19.0451 11.7417 19.2201 11.6513 19.3712C11.5694 19.5081 11.4398 19.6729 11.2508 19.8354C10.71 20.3005 9.98335 20.4601 9.20562 20.1107C7.4887 19.3394 6.10575 17.3484 6.67438 15.1618C6.80043 14.6772 6.88981 14.2744 6.94748 13.9476C6.01956 14.0151 5.07411 14.0414 4.18114 14.0043C3.59834 13.9801 3.06026 13.9291 2.57456 13.8472C1.18446 13.6128 0.479182 12.7074 0.48037 11.3389C0.48078 10.8673 0.610961 10.3519 0.823037 9.927C0.452802 8.98416 0.739383 7.6597 1.45705 6.96189C1.30094 5.95508 1.53317 5.10551 2.30809 4.4081C2.3476 3.0849 2.84466 2.27134 3.74266 1.95943C3.88278 1.91077 4.02303 1.87796 4.17261 1.85468C4.26594 1.84016 4.27734 1.8389 4.46864 1.81949C4.50798 1.8155 4.53031 1.8129 4.54415 1.8108C5.82565 1.61682 10.8794 1.63657 13.272 1.86049C13.3534 1.779 13.4523 1.71239 13.5658 1.66698C15.5076 0.890512 16.1968 0.82843 19.2862 1.21043C19.6291 1.25282 19.9149 1.49298 20.0157 1.82341C20.9055 4.73901 20.7943 7.93428 20.0791 12.216C19.9939 12.7262 19.4871 13.0515 18.9878 12.9166C17.4284 12.4952 16.412 12.4588 14.3224 12.6906C14.2176 12.7022 14.1162 12.6951 14.0208 12.6722ZM18.5 11.003C18.9966 7.70306 19.0609 5.12872 18.4931 2.87731C16.6073 2.65631 15.9628 2.66684 14.9536 3.01292C15.4062 4.96267 15.5655 8.20795 15.2567 10.845C16.5112 10.7532 17.4503 10.7933 18.5 11.003ZM16.9703 3.56275C17.5344 3.56275 17.9693 3.87339 18.0244 4.59355C18.0795 5.31372 17.4555 5.62738 16.8756 5.62738C16.2957 5.62738 16.025 5.19202 15.9244 4.59355C15.8239 3.99508 16.4062 3.56275 16.9703 3.56275Z" fill="#EA1337"/></svg>