<svg width="20" height="20" viewBox="0 0 20 20" fill="none" xmlns="http://www.w3.org/2000/svg"><path fill-rule="evenodd" clip-rule="evenodd" d="M10.2531 0.5C6.24716 0.5 3 3.74716 3 7.75306C3 12.2632 6.64332 16.061 9.49901 19.1691C9.90457 19.6103 10.6015 19.6103 11.0071 19.1691C13.8628 16.061 17.5061 12.2632 17.5061 7.75306C17.5061 3.74716 14.259 0.5 10.2531 0.5V0.5ZM10.2531 4.43137C12.0875 4.43137 13.5747 5.91864 13.5747 7.75306C13.5747 9.58747 12.0875 11.0747 10.2531 11.0747C8.41864 11.0747 6.93137 9.58747 6.93137 7.75306C6.93137 5.91864 8.41864 4.43137 10.2531 4.43137Z" fill="#B3B3B3"/></svg>