<svg width="164" height="49" viewBox="0 0 164 49" fill="none" xmlns="http://www.w3.org/2000/svg"><path fill-rule="evenodd" clip-rule="evenodd" d="M141.01 31.0205C134.806 41.0932 110.741 48.6023 81.9991 48.6023C53.2571 48.6023 29.1927 41.0932 22.9888 31.0205C29.6979 39.9894 53.5735 46.6212 81.9991 46.6212C110.425 46.6212 134.3 39.9894 141.01 31.0205Z" fill="#78772B"/><path fill-rule="evenodd" clip-rule="evenodd" d="M81.9988 0.297852C110.739 0.297852 134.805 7.80696 141.009 17.8796C134.3 8.91256 110.424 2.27895 81.9988 2.27895C53.5732 2.27895 29.6993 8.91256 22.9902 17.8796C29.1942 7.80696 53.2586 0.297852 81.9988 0.297852Z" fill="#78772B"/><path d="M134.831 17.7822V18.0429H134.479C133.995 18.0429 133.69 18.1382 133.56 18.3287C133.461 18.4744 133.415 18.8195 133.415 19.3606V27.267H133.235L126.786 19.7148V25.2805C126.786 25.676 126.804 25.9511 126.837 26.1129C126.91 26.4311 127.061 26.645 127.291 26.7529C127.466 26.8374 127.736 26.8841 128.099 26.8985V27.1574H124.845V26.8985C125.584 26.8805 126.012 26.6828 126.127 26.307C126.18 26.1201 126.209 25.6563 126.209 24.9174V19.1269C125.812 18.4042 125.199 18.0411 124.372 18.0411V17.7822H126.986L132.837 24.7071V19.4415C132.837 18.9076 132.798 18.5642 132.722 18.4096C132.604 18.1669 132.32 18.0429 131.872 18.0429H131.527V17.784H134.831V17.7822ZM104.192 18.0429V17.784H108.221V18.0429C107.554 18.0609 107.164 18.246 107.051 18.5948C107.001 18.7494 106.974 19.0892 106.974 19.6069V23.7651C106.974 24.3206 106.986 24.6891 107.013 24.8707C107.067 25.2392 107.205 25.5754 107.425 25.8792C107.86 26.4868 108.561 26.7906 109.525 26.7906C110.114 26.7906 110.632 26.6792 111.078 26.4581C111.601 26.1902 111.95 25.7965 112.129 25.2716C112.289 24.8149 112.369 24.1947 112.369 23.4127V19.6069C112.369 19.1683 112.36 18.8968 112.342 18.7943C112.288 18.5049 112.142 18.3036 111.91 18.1867C111.718 18.0932 111.418 18.0465 111.015 18.0411V17.7822H114.335V18.0429C113.58 18.0429 113.142 18.2173 113.014 18.5678C112.96 18.7296 112.931 19.0748 112.931 19.6069V23.4073C112.931 24.2379 112.849 24.885 112.681 25.3525C112.458 25.9601 112.056 26.4473 111.47 26.8122C110.884 27.1789 110.19 27.3623 109.388 27.3623C107.977 27.3623 106.957 27.0082 106.326 26.2981C105.812 25.7246 105.557 24.8599 105.557 23.7075V19.6069C105.557 19.1683 105.546 18.8968 105.525 18.7943C105.471 18.5013 105.327 18.2964 105.095 18.1795C104.904 18.0932 104.604 18.0465 104.192 18.0429ZM85.8018 17.7822H93.7351L93.8628 19.8982H93.6075C93.5356 19.3067 93.336 18.895 93.0106 18.6631C92.7302 18.4672 92.2915 18.3701 91.6857 18.3701H90.4722V25.3291C90.4722 25.7731 90.4812 26.0392 90.4992 26.1273C90.546 26.4113 90.6826 26.6163 90.9109 26.7421C91.0997 26.8482 91.3963 26.9021 91.799 26.9021V27.161H87.7559V26.9021C88.4624 26.9021 88.8741 26.7133 88.9855 26.3358C89.0323 26.1812 89.0556 25.845 89.0556 25.3309V18.3719H87.8889C87.4467 18.3719 87.1447 18.3953 86.9775 18.4384C86.6916 18.5103 86.4543 18.6793 86.2674 18.9436C86.0786 19.2078 85.9725 19.5278 85.9456 19.9017H85.7101L85.8018 17.7822ZM75.6176 17.7822V18.0429C75.143 18.0429 74.7296 18.2155 74.3772 18.5606C74.1723 18.7566 73.8936 19.1413 73.5413 19.7112L71.4307 23.1395V25.3183C71.4307 25.7659 71.4397 26.0374 71.4577 26.1345C71.5116 26.4329 71.6626 26.6378 71.9035 26.7529C72.0977 26.85 72.4087 26.8985 72.8347 26.8985V27.1574H68.6353V26.8985C69.3651 26.8895 69.7966 26.7115 69.9242 26.3664C69.9836 26.2064 70.0141 25.8594 70.0141 25.3183V23.2203L67.5512 19.4074C67.1755 18.8267 66.9454 18.4959 66.8573 18.4114C66.6056 18.1633 66.2587 18.0411 65.8146 18.0411V17.7822H69.8038V18.0429C69.1171 18.0429 68.7737 18.1687 68.7737 18.4204C68.7737 18.6254 68.9211 18.9525 69.2105 19.4092L71.1808 22.5067L72.9031 19.7094C73.3165 19.0334 73.5215 18.6056 73.5215 18.4294C73.5215 18.1687 73.2302 18.0357 72.6496 18.0357L72.5723 18.0429V17.784H75.6176V17.7822ZM54.8934 17.7822L55.0067 19.8424H54.7766C54.6687 19.0568 54.3703 18.5822 53.8795 18.4204C53.6818 18.3593 53.4085 18.3269 53.0598 18.3269H50.4638V21.944H52.7865C53.5739 21.944 53.9676 21.4891 53.9676 20.5795H54.2031V23.8819H53.9676C53.9676 23.3786 53.8831 23.0262 53.7123 22.8213C53.529 22.6001 53.2 22.4887 52.7308 22.4887H50.4638V25.8738C50.4638 26.1686 50.5124 26.3682 50.6113 26.4652C50.7101 26.5623 50.9043 26.6109 51.1955 26.6109H53.0616C53.6944 26.6109 54.1905 26.4599 54.5537 26.1578C54.8395 25.9187 55.1505 25.4729 55.4831 24.8185H55.733L55.0085 27.1574H47.7493V26.8985C48.4486 26.8985 48.8585 26.7097 48.9789 26.3322C49.0257 26.1776 49.049 25.8414 49.049 25.3273V19.5925C49.049 19.1539 49.04 18.8842 49.0221 18.7872C48.9681 18.4941 48.8261 18.2892 48.5978 18.1759C48.4144 18.0878 48.1322 18.0375 47.7493 18.0285V17.7822H54.8934ZM30.1333 17.7822H37.2505L31.1257 26.5857H34.9369C35.656 26.5857 36.1647 26.4473 36.4578 26.1722C36.7202 25.9313 36.9539 25.4262 37.1643 24.6603H37.3764L36.9288 27.161H29.168V26.9147L35.14 18.3305H32.1935C31.4673 18.3305 30.9711 18.442 30.7068 18.6649C30.4246 18.9022 30.252 19.3822 30.1891 20.1031H29.95L30.1333 17.7822Z" fill="#1A1A18"/><path d="M103.728 30.9531C103.728 30.3113 103.728 30.1944 103.734 30.0632C103.743 29.9176 103.766 29.8583 103.879 29.8349C103.926 29.8259 103.955 29.8259 103.982 29.8259C103.996 29.8259 104.014 29.8061 104.014 29.7917C104.014 29.7666 103.996 29.7576 103.949 29.7576C103.824 29.7576 103.557 29.7666 103.538 29.7666C103.514 29.7666 103.257 29.7576 103.121 29.7576C103.074 29.7576 103.056 29.7666 103.056 29.7917C103.056 29.8061 103.07 29.8259 103.088 29.8259C103.117 29.8259 103.167 29.8313 103.214 29.8403C103.302 29.8601 103.336 29.923 103.345 30.0632C103.354 30.1944 103.354 30.3113 103.354 30.9531V31.683C103.354 32.082 103.349 32.4074 103.331 32.5782C103.317 32.7005 103.302 32.7778 103.223 32.7975C103.185 32.8065 103.135 32.8173 103.097 32.8173C103.074 32.8173 103.065 32.8371 103.065 32.8515C103.065 32.8766 103.088 32.8856 103.13 32.8856C103.255 32.8856 103.513 32.8712 103.536 32.8712C103.554 32.8712 103.822 32.8856 104.05 32.8856C104.097 32.8856 104.115 32.8713 104.115 32.8515C104.115 32.8371 104.106 32.8173 104.082 32.8173C104.045 32.8173 103.957 32.8083 103.895 32.7975C103.773 32.7778 103.761 32.7005 103.746 32.5782C103.728 32.4074 103.728 32.082 103.728 31.683V30.9531ZM133.763 29.576V30.6888H133.678C133.653 30.4749 133.606 30.3059 133.535 30.1801C133.464 30.0542 133.362 29.9535 133.231 29.8816C133.1 29.8079 132.965 29.7702 132.824 29.7702C132.668 29.7702 132.537 29.8205 132.433 29.9194C132.327 30.0183 132.274 30.1333 132.274 30.2592C132.274 30.358 132.307 30.4497 132.373 30.5306C132.467 30.6457 132.691 30.8021 133.046 30.9998C133.333 31.1634 133.531 31.2857 133.641 31.3701C133.745 31.4564 133.824 31.5589 133.883 31.6758C133.939 31.7962 133.968 31.9185 133.968 32.0461C133.968 32.287 133.878 32.4973 133.698 32.6717C133.518 32.8479 133.285 32.936 132.997 32.936C132.907 32.936 132.823 32.9288 132.745 32.9162C132.699 32.909 132.6 32.882 132.451 32.8317C132.3 32.785 132.206 32.7616 132.168 32.7616C132.127 32.7616 132.098 32.7706 132.08 32.7903C132.055 32.8137 132.039 32.8623 132.028 32.9378H131.94L131.945 31.8411H132.028C132.069 32.0695 132.122 32.2438 132.188 32.3589C132.256 32.4722 132.359 32.5674 132.495 32.6465C132.632 32.7202 132.783 32.758 132.95 32.758C133.141 32.758 133.29 32.7059 133.398 32.6016C133.508 32.4991 133.562 32.3751 133.562 32.2313C133.562 32.1504 133.542 32.0695 133.502 31.9886C133.457 31.9077 133.393 31.834 133.306 31.7656C133.247 31.7171 133.085 31.6146 132.821 31.46C132.555 31.309 132.366 31.1868 132.255 31.0951C132.143 31.0016 132.059 30.8991 132.001 30.7895C131.942 30.6816 131.913 30.5594 131.913 30.4263C131.913 30.1944 131.999 29.9967 132.17 29.8295C132.343 29.6623 132.558 29.5796 132.821 29.5796C132.984 29.5796 133.161 29.6228 133.344 29.709C133.43 29.7486 133.491 29.7684 133.526 29.7684C133.562 29.7684 133.596 29.7558 133.624 29.7324C133.648 29.7055 133.668 29.6533 133.68 29.5778H133.763V29.576ZM127.296 31.9742L127.372 31.9886L127.11 32.8677H124.713V32.776H124.83C124.961 32.776 125.055 32.7328 125.11 32.6447C125.141 32.5926 125.157 32.474 125.157 32.2888V30.216C125.157 30.0147 125.137 29.8888 125.098 29.8367C125.039 29.7684 124.949 29.7342 124.83 29.7342H124.713V29.6461H126.115V29.7342C126.101 29.7342 126.088 29.7342 126.076 29.7342C125.93 29.7342 125.828 29.7504 125.768 29.781C125.704 29.8151 125.659 29.8565 125.634 29.9086C125.608 29.9571 125.594 30.0758 125.594 30.2663V32.2852C125.594 32.4182 125.607 32.5081 125.634 32.5566C125.652 32.589 125.68 32.6124 125.716 32.6286C125.752 32.6447 125.871 32.6537 126.07 32.6537H126.293C126.532 32.6537 126.701 32.6357 126.795 32.5998C126.89 32.5656 126.976 32.5009 127.054 32.4056C127.14 32.3175 127.219 32.1719 127.296 31.9742ZM119.176 31.6128L118.651 30.3149L118.108 31.6128H119.176ZM119.239 31.7944H118.038L117.826 32.3014C117.776 32.4236 117.751 32.5171 117.751 32.5782C117.751 32.6304 117.772 32.6735 117.817 32.7077C117.86 32.7472 117.957 32.7724 118.106 32.7814L118.108 32.8694H117.134V32.7814C117.262 32.758 117.346 32.7274 117.387 32.6879C117.463 32.6106 117.547 32.456 117.643 32.2259L118.734 29.5778H118.815L119.89 32.2564C119.976 32.4704 120.055 32.6088 120.127 32.6699C120.195 32.7346 120.294 32.7724 120.422 32.7814V32.8694H119.203V32.7814C119.325 32.7742 119.408 32.7544 119.449 32.7166C119.494 32.6825 119.516 32.6375 119.516 32.5818C119.516 32.5135 119.487 32.4056 119.428 32.2564L119.239 31.7944ZM112.65 29.576L112.721 30.669H112.65C112.557 30.34 112.424 30.1045 112.25 29.9589C112.072 29.8133 111.861 29.7396 111.618 29.7396C111.412 29.7396 111.227 29.7953 111.061 29.905C110.892 30.0129 110.761 30.1872 110.669 30.4245C110.572 30.66 110.524 30.9531 110.524 31.3054C110.524 31.5985 110.569 31.8501 110.659 32.0641C110.75 32.278 110.885 32.4416 111.067 32.5548C111.248 32.6681 111.453 32.7238 111.683 32.7238C111.883 32.7238 112.061 32.6789 112.217 32.589C112.37 32.5027 112.537 32.3247 112.721 32.0605L112.791 32.1072C112.638 32.3949 112.456 32.6052 112.248 32.7382C112.043 32.8713 111.796 32.9378 111.509 32.9378C111 32.9378 110.605 32.74 110.322 32.3445C110.11 32.0479 110.002 31.7009 110.002 31.3036C110.002 30.9836 110.072 30.6888 110.214 30.4209C110.351 30.1513 110.542 29.9428 110.784 29.7917C111.029 29.6461 111.293 29.5742 111.579 29.5742C111.804 29.5742 112.025 29.6299 112.242 29.7396C112.305 29.7774 112.35 29.7971 112.377 29.7971C112.418 29.7971 112.454 29.7828 112.485 29.7558C112.526 29.7126 112.553 29.6533 112.569 29.576H112.65ZM98.3333 29.6497L98.3656 30.4048H98.2776C98.2614 30.2717 98.2416 30.1783 98.2128 30.1261C98.1661 30.0326 98.1032 29.9643 98.0259 29.9212C97.945 29.8798 97.8407 29.8601 97.7131 29.8601H97.278V32.3176C97.278 32.5153 97.2978 32.6393 97.3391 32.6879C97.3985 32.7508 97.4884 32.7832 97.607 32.7832H97.7149V32.8712H96.4043V32.7814H96.5122C96.6434 32.7814 96.7369 32.74 96.7926 32.6609C96.8232 32.6088 96.8394 32.4919 96.8394 32.3104V29.8601H96.4708C96.3252 29.8601 96.221 29.869 96.1616 29.8888C96.0789 29.9212 96.0106 29.9787 95.9549 30.0614C95.8992 30.1441 95.8668 30.2592 95.8578 30.4048H95.7697L95.8057 29.6497H98.3333ZM90.3352 29.7378V29.6497H91.4282V29.7378H91.3168C91.1927 29.7378 91.0974 29.7899 91.0309 29.896C91.0004 29.9446 90.9842 30.0596 90.9842 30.2376V31.5463C90.9842 31.8663 90.9554 32.1144 90.8961 32.2942C90.8332 32.474 90.7127 32.6268 90.5312 32.758C90.3496 32.8856 90.1033 32.9503 89.7941 32.9503C89.4561 32.9503 89.2008 32.8874 89.0265 32.7634C88.8521 32.6393 88.728 32.4757 88.6525 32.2708C88.6022 32.1288 88.577 31.8645 88.577 31.4798V30.2178C88.577 30.0201 88.5519 29.8906 88.5015 29.8277C88.4494 29.7666 88.3667 29.736 88.2462 29.736H88.1276V29.6479H89.4687V29.736H89.3483C89.2206 29.736 89.1307 29.7774 89.0768 29.8619C89.0372 29.9176 89.0175 30.0362 89.0175 30.2178V31.62C89.0175 31.7441 89.0283 31.8861 89.0498 32.0497C89.0714 32.2115 89.1109 32.3373 89.1703 32.4272C89.2296 32.5171 89.3141 32.5908 89.4238 32.6537C89.528 32.7113 89.6611 32.7418 89.8211 32.7418C90.0242 32.7418 90.204 32.6933 90.3622 32.5998C90.5258 32.5099 90.6354 32.3931 90.6965 32.251C90.7523 32.109 90.781 31.8645 90.781 31.5194V30.2196C90.781 30.0183 90.7613 29.8906 90.7199 29.8403C90.6606 29.772 90.5707 29.7378 90.452 29.7378H90.3352ZM82.08 29.8295V31.0987H82.7578C82.9358 31.0987 83.0544 31.0717 83.1137 31.016C83.1946 30.9423 83.2378 30.8146 83.2432 30.6349H83.3313V31.7549H83.2432C83.2252 31.5985 83.2054 31.4978 83.1838 31.4528C83.1551 31.3971 83.1083 31.354 83.0472 31.3198C82.9843 31.2928 82.889 31.2785 82.7578 31.2785H82.08V32.3355C82.08 32.4775 82.0854 32.5638 82.098 32.5926C82.1124 32.625 82.134 32.6483 82.1645 32.6645C82.1933 32.6861 82.2526 32.6969 82.3389 32.6969H82.8603C83.0364 32.6969 83.1623 32.6825 83.2432 32.6573C83.3205 32.6286 83.396 32.5782 83.4697 32.5027C83.565 32.4056 83.662 32.26 83.7591 32.0623H83.8508L83.5865 32.8677H81.2028V32.7814H81.3088C81.3807 32.7814 81.449 32.7634 81.5138 32.7274C81.5641 32.7023 81.5983 32.6627 81.618 32.6124C81.6306 32.5638 81.6378 32.4596 81.6378 32.3014V30.2106C81.6378 30.0075 81.6198 29.8816 81.5839 29.8331C81.5263 29.7702 81.4347 29.7396 81.307 29.7396H81.201V29.6515H83.5847L83.6171 30.358H83.529C83.4985 30.189 83.4643 30.0722 83.4265 30.0093C83.3852 29.9481 83.3259 29.8996 83.2486 29.8654C83.1892 29.8439 83.0832 29.8313 82.9322 29.8313H82.08V29.8295ZM76.6563 29.576L76.7264 30.669H76.6563C76.5628 30.34 76.4298 30.1045 76.2554 29.9589C76.0774 29.8133 75.8671 29.7396 75.6244 29.7396C75.4177 29.7396 75.2325 29.7953 75.0671 29.905C74.8981 30.0129 74.7687 30.1872 74.6752 30.4245C74.5781 30.66 74.5278 30.9531 74.5278 31.3054C74.5278 31.5985 74.5727 31.8501 74.6626 32.0641C74.7543 32.278 74.8891 32.4416 75.0707 32.5548C75.2523 32.6681 75.4572 32.7238 75.6873 32.7238C75.8869 32.7238 76.0648 32.6789 76.2212 32.589C76.3741 32.5027 76.5412 32.3247 76.7246 32.0605L76.7947 32.1072C76.6419 32.3949 76.4603 32.6052 76.2518 32.7382C76.0469 32.8713 75.8006 32.9378 75.5129 32.9378C75.0042 32.9378 74.6087 32.74 74.3264 32.3445C74.1143 32.0479 74.0065 31.7009 74.0065 31.3036C74.0065 30.9836 74.0766 30.6888 74.2186 30.4209C74.3552 30.1513 74.5458 29.9428 74.7885 29.7917C75.0329 29.6461 75.2972 29.5742 75.5831 29.5742C75.8078 29.5742 76.0289 29.6299 76.2464 29.7396C76.3093 29.7774 76.3543 29.7971 76.3812 29.7971C76.4226 29.7971 76.4585 29.7828 76.4891 29.7558C76.5305 29.7126 76.5574 29.6533 76.5736 29.576H76.6563ZM68.3993 31.6128L67.8744 30.3149L67.3315 31.6128H68.3993ZM68.4623 31.7944H67.2614L67.0492 32.3014C66.9989 32.4236 66.9737 32.5171 66.9737 32.5782C66.9737 32.6304 66.9953 32.6735 67.0403 32.7077C67.0834 32.7472 67.1805 32.7724 67.3297 32.7814L67.3315 32.8694H66.3571V32.7814C66.4848 32.758 66.5693 32.7274 66.6106 32.6879C66.6861 32.6106 66.7706 32.456 66.8659 32.2259L67.9571 29.5778H68.038L69.113 32.2564C69.1993 32.4704 69.2784 32.6088 69.3503 32.6699C69.4186 32.7346 69.5175 32.7724 69.6452 32.7814V32.8694H68.4263V32.7814C68.5485 32.7742 68.6312 32.7544 68.6726 32.7166C68.7175 32.6825 68.7391 32.6375 68.7391 32.5818C68.7391 32.5135 68.7103 32.4056 68.651 32.2564L68.4623 31.7944ZM59.932 32.8677L58.7348 30.1585V32.3068C58.7348 32.5045 58.7563 32.6286 58.7995 32.6771C58.8552 32.7454 58.9451 32.7796 59.0673 32.7796H59.1752V32.8677H58.0984V32.7814H58.2062C58.3375 32.7814 58.4309 32.74 58.4867 32.6609C58.519 32.6088 58.5334 32.4919 58.5334 32.3086V30.207C58.5334 30.065 58.519 29.9607 58.4903 29.896C58.4687 29.8529 58.4309 29.8133 58.3734 29.781C58.3141 29.7522 58.2224 29.7378 58.0966 29.7378V29.6497H58.9721L60.0974 32.1683L61.203 29.6497H62.0785V29.7378H61.9707C61.8394 29.7378 61.746 29.7774 61.6902 29.8583C61.6579 29.9104 61.6417 30.0272 61.6417 30.207V32.3086C61.6417 32.5063 61.6615 32.6304 61.7028 32.6789C61.7585 32.7472 61.8484 32.7814 61.9707 32.7814H62.0785V32.8694H60.7644V32.7814H60.8741C61.0089 32.7814 61.1006 32.74 61.1527 32.6609C61.1869 32.6088 61.203 32.4919 61.203 32.3086V30.1603L60.0075 32.8694H59.932V32.8677ZM51.7146 31.2155C51.7434 31.2155 51.7686 31.2155 51.7901 31.2155C51.8135 31.2155 51.8315 31.2155 51.8441 31.2155C52.1407 31.2155 52.3636 31.149 52.511 31.016C52.662 30.883 52.7375 30.714 52.7375 30.5108C52.7375 30.3095 52.6764 30.1477 52.556 30.0219C52.4337 29.8978 52.2737 29.8349 52.0742 29.8349C51.9861 29.8331 51.8656 29.8475 51.7146 29.8762V31.2155ZM53.9186 32.8677H53.0881L52.04 31.3612C51.9627 31.3648 51.898 31.3666 51.8477 31.3666C51.8297 31.3666 51.8081 31.3666 51.7829 31.3666C51.7596 31.3666 51.7362 31.3648 51.7128 31.3612V32.2996C51.7128 32.5009 51.7344 32.625 51.7794 32.6735C51.8387 32.7454 51.925 32.7814 52.04 32.7814H52.1641V32.8694H50.8373V32.7814H50.9542C51.0854 32.7814 51.1789 32.7382 51.2346 32.6501C51.2652 32.598 51.2814 32.4811 51.2814 32.2996V30.2214C51.2814 30.0201 51.2616 29.8942 51.2221 29.8421C51.1627 29.7738 51.0728 29.7396 50.9542 29.7396H50.8373V29.6497H51.9645C52.2935 29.6497 52.538 29.6731 52.6926 29.7234C52.849 29.7738 52.982 29.8654 53.0899 29.9985C53.1996 30.1315 53.2535 30.2897 53.2535 30.4749C53.2535 30.6726 53.1906 30.8452 53.0665 30.9908C52.9407 31.1364 52.7501 31.2407 52.4913 31.3018L53.1294 32.2241C53.2769 32.4362 53.4009 32.5764 53.507 32.6483C53.613 32.7166 53.7515 32.7598 53.9204 32.7796V32.8677H53.9186ZM45.3129 31.6128L44.788 30.3149L44.2451 31.6128H45.3129ZM45.3776 31.7944H44.1768L43.9646 32.3014C43.9143 32.4236 43.8891 32.5171 43.8891 32.5782C43.8891 32.6304 43.9107 32.6735 43.9556 32.7077C43.9988 32.7472 44.0959 32.7724 44.2451 32.7814L44.2469 32.8694H43.2725V32.7814C43.4001 32.758 43.4846 32.7274 43.526 32.6879C43.6015 32.6106 43.686 32.456 43.7813 32.2259L44.8725 29.5778H44.9534L46.0284 32.2564C46.1147 32.4704 46.1938 32.6088 46.2657 32.6699C46.334 32.7346 46.4329 32.7724 46.5606 32.7814V32.8694H45.3417V32.7814C45.4639 32.7742 45.5466 32.7544 45.588 32.7166C45.6329 32.6825 45.6545 32.6375 45.6545 32.5818C45.6545 32.5135 45.6257 32.4056 45.5664 32.2564L45.3776 31.7944ZM36.6784 31.1418H38.113V30.2232C38.113 30.0578 38.104 29.9481 38.0879 29.896C38.0699 29.8547 38.0375 29.8205 37.989 29.7935C37.9243 29.7558 37.8542 29.736 37.7805 29.736H37.669V29.6479H38.9957V29.736H38.8843C38.8124 29.736 38.744 29.7522 38.6793 29.7881C38.629 29.8151 38.5966 29.8547 38.5804 29.9068C38.5607 29.9571 38.5517 30.0632 38.5517 30.2232V32.2978C38.5517 32.4614 38.5625 32.5674 38.5804 32.6178C38.5966 32.6573 38.6272 32.6915 38.6739 32.7202C38.7422 32.7598 38.8124 32.7796 38.8843 32.7796H38.9957V32.8677H37.669V32.7814H37.7805C37.9045 32.7814 37.998 32.7418 38.0573 32.6645C38.0933 32.6124 38.1112 32.4901 38.1112 32.2996V31.3126H36.6767V32.296C36.6767 32.4578 36.6856 32.5638 36.7036 32.6178C36.7216 32.6555 36.7522 32.6897 36.7971 32.7202C36.8618 32.7616 36.9337 32.7814 37.0092 32.7814H37.1207V32.8694H35.794V32.7814H35.9054C36.0331 32.7814 36.1247 32.7418 36.1823 32.6645C36.2182 32.6124 36.2362 32.4919 36.2362 32.2996V30.225C36.2362 30.0578 36.2254 29.9499 36.2038 29.896C36.1913 29.8547 36.1607 29.8205 36.1104 29.7935C36.0456 29.7558 35.9755 29.736 35.9054 29.736H35.794V29.6479H37.1207V29.736H37.0092C36.9337 29.736 36.8618 29.7522 36.7971 29.7881C36.7522 29.8151 36.7198 29.8547 36.6982 29.9068C36.6838 29.9571 36.6749 30.0632 36.6749 30.2214V31.1418H36.6784ZM29.9298 31.2263C30.0107 31.2425 30.0826 31.2533 30.1455 31.2569C30.2084 31.2677 30.2624 31.2731 30.3055 31.2731C30.4637 31.2731 30.6021 31.2084 30.7172 31.0789C30.8322 30.9513 30.888 30.7877 30.888 30.5863C30.888 30.4461 30.861 30.3167 30.8053 30.1962C30.7531 30.0776 30.674 29.9895 30.5716 29.9302C30.4709 29.869 30.3558 29.8385 30.2282 29.8385C30.1509 29.8385 30.0502 29.8547 29.928 29.887V31.2263H29.9298ZM29.9298 31.3612V32.2996C29.9298 32.5045 29.9514 32.6304 29.9963 32.6789C30.052 32.7472 30.1401 32.7814 30.257 32.7814H30.3756V32.8694H29.0525V32.7814H29.1693C29.297 32.7814 29.3905 32.7382 29.4498 32.6501C29.4768 32.598 29.4911 32.4811 29.4911 32.2978V30.2178C29.4911 30.0165 29.4714 29.8888 29.4318 29.8385C29.3725 29.7702 29.2844 29.736 29.1693 29.736H29.0525V29.6479H30.1833C30.4601 29.6479 30.6776 29.6767 30.8358 29.736C30.9994 29.7971 31.1343 29.8978 31.2439 30.038C31.3518 30.1783 31.4075 30.3436 31.4075 30.5396C31.4075 30.8021 31.3248 31.016 31.1612 31.1796C30.9922 31.345 30.7549 31.4295 30.4493 31.4295C30.3738 31.4295 30.2947 31.4241 30.212 31.4133C30.1221 31.4007 30.0287 31.3827 29.9298 31.3612Z" fill="#1A1A18"/></svg>