<svg width="120" height="49" viewBox="0 0 120 49" fill="none" xmlns="http://www.w3.org/2000/svg"><path fill-rule="evenodd" clip-rule="evenodd" d="M119.01 31.0195C112.806 41.0922 88.7412 48.6013 59.9991 48.6013C31.2571 48.6013 7.19272 41.0922 0.98877 31.0195C7.69788 39.9884 31.5735 46.6202 59.9991 46.6202C88.4248 46.6202 112.3 39.9884 119.01 31.0195Z" fill="#fff"/><path fill-rule="evenodd" clip-rule="evenodd" d="M59.9988 0.296875C88.7391 0.296875 112.805 7.80598 119.009 17.8786C112.3 8.91158 88.4245 2.27797 59.9988 2.27797C31.5732 2.27797 7.69935 8.91158 0.990234 17.8786C7.19419 7.80598 31.2586 0.296875 59.9988 0.296875Z" fill="#fff"/><path d="M112.831 17.7812V18.0419H112.479C111.995 18.0419 111.69 18.1372 111.56 18.3278C111.461 18.4734 111.415 18.8185 111.415 19.3597V27.2661H111.235L104.786 19.7138V25.2796C104.786 25.6751 104.804 25.9501 104.837 26.1119C104.91 26.4301 105.061 26.644 105.291 26.7519C105.466 26.8364 105.736 26.8831 106.099 26.8975V27.1564H102.845V26.8975C103.584 26.8795 104.012 26.6818 104.127 26.3061C104.18 26.1191 104.209 25.6553 104.209 24.9164V19.126C103.812 18.4033 103.199 18.0401 102.372 18.0401V17.7812H104.986L110.837 24.7061V19.4406C110.837 18.9066 110.798 18.5633 110.722 18.4087C110.604 18.166 110.32 18.0419 109.872 18.0419H109.527V17.783H112.831V17.7812ZM82.1925 18.0419V17.783H86.2212V18.0419C85.5542 18.0599 85.1641 18.2451 85.0509 18.5938C85.0005 18.7484 84.9736 19.0882 84.9736 19.6059V23.7641C84.9736 24.3196 84.9862 24.6881 85.0131 24.8697C85.0671 25.2382 85.2055 25.5744 85.4248 25.8782C85.8599 26.4858 86.561 26.7897 87.5246 26.7897C88.1142 26.7897 88.632 26.6782 89.0778 26.4571C89.6009 26.1892 89.9497 25.7955 90.1295 25.2706C90.2895 24.814 90.3686 24.1937 90.3686 23.4117V19.6059C90.3686 19.1673 90.3596 18.8958 90.3416 18.7934C90.2877 18.5039 90.142 18.3026 89.9101 18.1857C89.7178 18.0923 89.4176 18.0455 89.0149 18.0401V17.7812H92.3353V18.0419C91.5802 18.0419 91.1416 18.2163 91.0139 18.5669C90.96 18.7287 90.9312 19.0738 90.9312 19.6059V23.4063C90.9312 24.2369 90.8485 24.8841 90.6814 25.3515C90.4584 25.9591 90.0557 26.4463 89.4697 26.8112C88.8836 27.178 88.1897 27.3613 87.3879 27.3613C85.9767 27.3613 84.9574 27.0072 84.3264 26.2971C83.8122 25.7236 83.557 24.8589 83.557 23.7066V19.6059C83.557 19.1673 83.5462 18.8958 83.5246 18.7934C83.4707 18.5003 83.3269 18.2954 83.0949 18.1786C82.9044 18.0923 82.6042 18.0455 82.1925 18.0419ZM63.8018 17.7812H71.7351L71.8628 19.8972H71.6075C71.5356 19.3057 71.336 18.894 71.0106 18.6621C70.7302 18.4662 70.2915 18.3691 69.6857 18.3691H68.4722V25.3281C68.4722 25.7721 68.4812 26.0382 68.4992 26.1263C68.546 26.4103 68.6826 26.6153 68.9109 26.7411C69.0997 26.8472 69.3963 26.9011 69.799 26.9011V27.16H65.7559V26.9011C66.4624 26.9011 66.8741 26.7124 66.9855 26.3348C67.0323 26.1802 67.0556 25.8441 67.0556 25.3299V18.3709H65.8889C65.4467 18.3709 65.1447 18.3943 64.9775 18.4374C64.6916 18.5093 64.4543 18.6783 64.2674 18.9426C64.0786 19.2069 63.9725 19.5268 63.9456 19.9008H63.7101L63.8018 17.7812ZM53.6176 17.7812V18.0419C53.143 18.0419 52.7296 18.2145 52.3772 18.5597C52.1723 18.7556 51.8936 19.1403 51.5413 19.7102L49.4307 23.1385V25.3173C49.4307 25.765 49.4397 26.0364 49.4577 26.1335C49.5116 26.4319 49.6626 26.6369 49.9035 26.7519C50.0977 26.849 50.4087 26.8975 50.8347 26.8975V27.1564H46.6353V26.8975C47.3651 26.8885 47.7966 26.7106 47.9242 26.3654C47.9836 26.2054 48.0141 25.8584 48.0141 25.3173V23.2194L45.5512 19.4064C45.1755 18.8257 44.9454 18.4949 44.8573 18.4105C44.6056 18.1624 44.2587 18.0401 43.8146 18.0401V17.7812H47.8038V18.0419C47.1171 18.0419 46.7737 18.1678 46.7737 18.4194C46.7737 18.6244 46.9211 18.9516 47.2105 19.4082L49.1808 22.5057L50.9031 19.7084C51.3165 19.0325 51.5215 18.6046 51.5215 18.4284C51.5215 18.1678 51.2302 18.0347 50.6496 18.0347L50.5723 18.0419V17.783H53.6176V17.7812ZM32.8934 17.7812L33.0067 19.8414H32.7766C32.6687 19.0558 32.3703 18.5812 31.8795 18.4194C31.6818 18.3583 31.4085 18.326 31.0598 18.326H28.4638V21.943H30.7865C31.5739 21.943 31.9676 21.4882 31.9676 20.5785H32.2031V23.8809H31.9676C31.9676 23.3776 31.8831 23.0252 31.7123 22.8203C31.529 22.5992 31.2 22.4877 30.7308 22.4877H28.4638V25.8728C28.4638 26.1676 28.5124 26.3672 28.6113 26.4643C28.7101 26.5613 28.9043 26.6099 29.1955 26.6099H31.0616C31.6944 26.6099 32.1905 26.4589 32.5537 26.1569C32.8395 25.9178 33.1505 25.4719 33.4831 24.8176H33.733L33.0085 27.1564H25.7493V26.8975C26.4486 26.8975 26.8585 26.7088 26.9789 26.3312C27.0257 26.1766 27.049 25.8405 27.049 25.3263V19.5916C27.049 19.1529 27.04 18.8833 27.0221 18.7862C26.9681 18.4932 26.8261 18.2882 26.5978 18.175C26.4144 18.0869 26.1322 18.0365 25.7493 18.0275V17.7812H32.8934ZM8.13335 17.7812H15.2505L9.12569 26.5847H12.9369C13.656 26.5847 14.1647 26.4463 14.4578 26.1712C14.7202 25.9303 14.9539 25.4252 15.1643 24.6594H15.3764L14.9288 27.16H7.16797V26.9137L13.14 18.3296H10.1935C9.46726 18.3296 8.97109 18.441 8.70682 18.6639C8.42458 18.9012 8.252 19.3812 8.18908 20.1021H7.94998L8.13335 17.7812Z" fill="#fff"/><path d="M81.7283 30.9521C81.7283 30.3103 81.7283 30.1935 81.7337 30.0622C81.7427 29.9166 81.766 29.8573 81.8793 29.8339C81.926 29.8249 81.9548 29.8249 81.9817 29.8249C81.9961 29.8249 82.0141 29.8051 82.0141 29.7908C82.0141 29.7656 81.9961 29.7566 81.9494 29.7566C81.8235 29.7566 81.5575 29.7656 81.5377 29.7656C81.5143 29.7656 81.2573 29.7566 81.1206 29.7566C81.0739 29.7566 81.0559 29.7656 81.0559 29.7908C81.0559 29.8051 81.0703 29.8249 81.0883 29.8249C81.117 29.8249 81.1674 29.8303 81.2141 29.8393C81.3022 29.8591 81.3364 29.922 81.3454 30.0622C81.3543 30.1935 81.3543 30.3103 81.3543 30.9521V31.682C81.3543 32.0811 81.3489 32.4065 81.331 32.5772C81.3166 32.6995 81.3022 32.7768 81.2231 32.7966C81.1854 32.8056 81.135 32.8163 81.0973 32.8163C81.0739 32.8163 81.0649 32.8361 81.0649 32.8505C81.0649 32.8757 81.0883 32.8847 81.1296 32.8847C81.2555 32.8847 81.5125 32.8703 81.5359 32.8703C81.5539 32.8703 81.8217 32.8847 82.0501 32.8847C82.0968 32.8847 82.1148 32.8703 82.1148 32.8505C82.1148 32.8361 82.1058 32.8163 82.0824 32.8163C82.0447 32.8163 81.9566 32.8074 81.8955 32.7966C81.7732 32.7768 81.7606 32.6995 81.7462 32.5772C81.7283 32.4065 81.7283 32.0811 81.7283 31.682V30.9521ZM111.763 29.575V30.6878H111.678C111.653 30.4739 111.606 30.3049 111.535 30.1791C111.464 30.0532 111.362 29.9526 111.231 29.8807C111.1 29.8069 110.965 29.7692 110.824 29.7692C110.668 29.7692 110.537 29.8195 110.433 29.9184C110.327 30.0173 110.274 30.1323 110.274 30.2582C110.274 30.3571 110.307 30.4487 110.373 30.5296C110.467 30.6447 110.691 30.8011 111.046 30.9988C111.333 31.1624 111.531 31.2847 111.641 31.3692C111.745 31.4555 111.824 31.5579 111.883 31.6748C111.939 31.7952 111.968 31.9175 111.968 32.0451C111.968 32.286 111.878 32.4963 111.698 32.6707C111.518 32.8469 111.285 32.935 110.997 32.935C110.907 32.935 110.823 32.9278 110.745 32.9152C110.699 32.908 110.6 32.8811 110.451 32.8307C110.3 32.784 110.206 32.7606 110.168 32.7606C110.127 32.7606 110.098 32.7696 110.08 32.7894C110.055 32.8127 110.039 32.8613 110.028 32.9368H109.94L109.945 31.8402H110.028C110.069 32.0685 110.122 32.2429 110.188 32.3579C110.256 32.4712 110.359 32.5665 110.495 32.6456C110.632 32.7193 110.783 32.757 110.95 32.757C111.141 32.757 111.29 32.7049 111.398 32.6006C111.508 32.4981 111.562 32.3741 111.562 32.2303C111.562 32.1494 111.542 32.0685 111.502 31.9876C111.457 31.9067 111.393 31.833 111.306 31.7647C111.247 31.7161 111.085 31.6137 110.821 31.4591C110.555 31.308 110.366 31.1858 110.255 31.0941C110.143 31.0006 110.059 30.8982 110.001 30.7885C109.942 30.6806 109.913 30.5584 109.913 30.4254C109.913 30.1935 109.999 29.9957 110.17 29.8285C110.343 29.6613 110.558 29.5786 110.821 29.5786C110.984 29.5786 111.161 29.6218 111.344 29.7081C111.43 29.7476 111.491 29.7674 111.526 29.7674C111.562 29.7674 111.596 29.7548 111.624 29.7314C111.648 29.7045 111.668 29.6523 111.68 29.5768H111.763V29.575ZM105.296 31.9732L105.372 31.9876L105.11 32.8667H102.713V32.775H102.83C102.961 32.775 103.055 32.7318 103.11 32.6438C103.141 32.5916 103.157 32.473 103.157 32.2878V30.215C103.157 30.0137 103.137 29.8878 103.098 29.8357C103.039 29.7674 102.949 29.7332 102.83 29.7332H102.713V29.6452H104.115V29.7332C104.101 29.7332 104.088 29.7332 104.076 29.7332C103.93 29.7332 103.828 29.7494 103.768 29.78C103.704 29.8141 103.659 29.8555 103.634 29.9076C103.608 29.9562 103.594 30.0748 103.594 30.2654V32.2842C103.594 32.4172 103.607 32.5071 103.634 32.5557C103.652 32.588 103.68 32.6114 103.716 32.6276C103.752 32.6438 103.871 32.6527 104.07 32.6527H104.293C104.532 32.6527 104.701 32.6348 104.795 32.5988C104.89 32.5647 104.976 32.4999 105.054 32.4047C105.14 32.3166 105.219 32.171 105.296 31.9732ZM97.1761 31.6119L96.6512 30.3139L96.1083 31.6119H97.1761ZM97.2391 31.7934H96.0382L95.826 32.3004C95.7757 32.4226 95.7505 32.5161 95.7505 32.5772C95.7505 32.6294 95.7721 32.6725 95.8171 32.7067C95.8602 32.7462 95.9573 32.7714 96.1065 32.7804L96.1083 32.8685H95.1339V32.7804C95.2616 32.757 95.346 32.7265 95.3874 32.6869C95.4629 32.6096 95.5474 32.455 95.6427 32.2249L96.7339 29.5768H96.8148L97.8898 32.2554C97.9761 32.4694 98.0552 32.6078 98.1271 32.6689C98.1955 32.7336 98.2943 32.7714 98.422 32.7804V32.8685H97.2031V32.7804C97.3254 32.7732 97.4081 32.7534 97.4494 32.7157C97.4943 32.6815 97.5159 32.6366 97.5159 32.5808C97.5159 32.5125 97.4871 32.4047 97.4278 32.2554L97.2391 31.7934ZM90.6504 29.575L90.7205 30.6681H90.6504C90.5569 30.3391 90.4239 30.1036 90.2495 29.958C90.0715 29.8123 89.8612 29.7386 89.6185 29.7386C89.4118 29.7386 89.2266 29.7944 89.0612 29.904C88.8922 30.0119 88.761 30.1863 88.6693 30.4236C88.5722 30.6591 88.5237 30.9521 88.5237 31.3045C88.5237 31.5975 88.5686 31.8492 88.6585 32.0631C88.7502 32.277 88.885 32.4406 89.0666 32.5539C89.2482 32.6671 89.4531 32.7229 89.6832 32.7229C89.8828 32.7229 90.0607 32.6779 90.2171 32.588C90.3699 32.5017 90.5371 32.3238 90.7205 32.0595L90.7906 32.1062C90.6378 32.3939 90.4562 32.6042 90.2477 32.7372C90.0428 32.8703 89.7965 32.9368 89.5088 32.9368C89.0001 32.9368 88.6046 32.739 88.3223 32.3435C88.1102 32.0469 88.0023 31.7 88.0023 31.3027C88.0023 30.9827 88.0724 30.6878 88.2145 30.42C88.3511 30.1503 88.5417 29.9418 88.7843 29.7908C89.0288 29.6451 89.2931 29.5732 89.5789 29.5732C89.8037 29.5732 90.0248 29.629 90.2423 29.7386C90.3052 29.7764 90.3502 29.7962 90.3771 29.7962C90.4185 29.7962 90.4544 29.7818 90.485 29.7548C90.5264 29.7117 90.5533 29.6523 90.5695 29.575H90.6504ZM76.3333 29.6487L76.3656 30.4038H76.2776C76.2614 30.2708 76.2416 30.1773 76.2128 30.1251C76.1661 30.0317 76.1032 29.9633 76.0259 29.9202C75.945 29.8789 75.8407 29.8591 75.7131 29.8591H75.278V32.3166C75.278 32.5143 75.2978 32.6384 75.3391 32.6869C75.3985 32.7498 75.4884 32.7822 75.607 32.7822H75.7149V32.8703H74.4043V32.7804H74.5122C74.6434 32.7804 74.7369 32.739 74.7926 32.6599C74.8232 32.6078 74.8394 32.491 74.8394 32.3094V29.8591H74.4708C74.3252 29.8591 74.221 29.8681 74.1616 29.8878C74.0789 29.9202 74.0106 29.9777 73.9549 30.0604C73.8992 30.1431 73.8668 30.2582 73.8578 30.4038H73.7697L73.8057 29.6487H76.3333ZM68.3352 29.7368V29.6487H69.4282V29.7368H69.3168C69.1927 29.7368 69.0974 29.789 69.0309 29.895C69.0004 29.9436 68.9842 30.0586 68.9842 30.2366V31.5453C68.9842 31.8653 68.9554 32.1134 68.8961 32.2932C68.8332 32.473 68.7127 32.6258 68.5312 32.757C68.3496 32.8847 68.1033 32.9494 67.7941 32.9494C67.4561 32.9494 67.2008 32.8865 67.0265 32.7624C66.8521 32.6384 66.728 32.4748 66.6525 32.2698C66.6022 32.1278 66.577 31.8635 66.577 31.4788V30.2168C66.577 30.0191 66.5519 29.8896 66.5015 29.8267C66.4494 29.7656 66.3667 29.735 66.2462 29.735H66.1276V29.6469H67.4687V29.735H67.3483C67.2206 29.735 67.1307 29.7764 67.0768 29.8609C67.0372 29.9166 67.0175 30.0353 67.0175 30.2168V31.6191C67.0175 31.7431 67.0283 31.8851 67.0498 32.0487C67.0714 32.2105 67.1109 32.3363 67.1703 32.4262C67.2296 32.5161 67.3141 32.5898 67.4238 32.6527C67.528 32.7103 67.6611 32.7408 67.8211 32.7408C68.0242 32.7408 68.204 32.6923 68.3622 32.5988C68.5258 32.5089 68.6354 32.3921 68.6965 32.2501C68.7523 32.108 68.781 31.8635 68.781 31.5184V30.2186C68.781 30.0173 68.7613 29.8896 68.7199 29.8393C68.6606 29.771 68.5707 29.7368 68.452 29.7368H68.3352ZM60.08 29.8285V31.0977H60.7578C60.9358 31.0977 61.0544 31.0707 61.1137 31.015C61.1946 30.9413 61.2378 30.8137 61.2432 30.6339H61.3313V31.7539H61.2432C61.2252 31.5975 61.2054 31.4968 61.1838 31.4519C61.1551 31.3961 61.1083 31.353 61.0472 31.3188C60.9843 31.2919 60.889 31.2775 60.7578 31.2775H60.08V32.3345C60.08 32.4766 60.0854 32.5629 60.098 32.5916C60.1124 32.624 60.134 32.6474 60.1645 32.6635C60.1933 32.6851 60.2526 32.6959 60.3389 32.6959H60.8603C61.0364 32.6959 61.1623 32.6815 61.2432 32.6563C61.3205 32.6276 61.396 32.5772 61.4697 32.5017C61.565 32.4047 61.662 32.259 61.7591 32.0613H61.8508L61.5865 32.8667H59.2028V32.7804H59.3088C59.3807 32.7804 59.449 32.7624 59.5138 32.7265C59.5641 32.7013 59.5983 32.6617 59.618 32.6114C59.6306 32.5629 59.6378 32.4586 59.6378 32.3004V30.2096C59.6378 30.0065 59.6198 29.8807 59.5839 29.8321C59.5263 29.7692 59.4347 29.7386 59.307 29.7386H59.201V29.6505H61.5847L61.6171 30.357H61.529C61.4985 30.1881 61.4643 30.0712 61.4265 30.0083C61.3852 29.9472 61.3259 29.8986 61.2486 29.8645C61.1892 29.8429 61.0832 29.8303 60.9322 29.8303H60.08V29.8285ZM54.6563 29.575L54.7264 30.6681H54.6563C54.5628 30.3391 54.4298 30.1036 54.2554 29.958C54.0774 29.8123 53.8671 29.7386 53.6244 29.7386C53.4177 29.7386 53.2325 29.7944 53.0671 29.904C52.8981 30.0119 52.7687 30.1863 52.6752 30.4236C52.5781 30.6591 52.5278 30.9521 52.5278 31.3045C52.5278 31.5975 52.5727 31.8492 52.6626 32.0631C52.7543 32.277 52.8891 32.4406 53.0707 32.5539C53.2523 32.6671 53.4572 32.7229 53.6873 32.7229C53.8869 32.7229 54.0648 32.6779 54.2212 32.588C54.3741 32.5017 54.5412 32.3238 54.7246 32.0595L54.7947 32.1062C54.6419 32.3939 54.4603 32.6042 54.2518 32.7372C54.0469 32.8703 53.8006 32.9368 53.5129 32.9368C53.0042 32.9368 52.6087 32.739 52.3264 32.3435C52.1143 32.0469 52.0065 31.7 52.0065 31.3027C52.0065 30.9827 52.0766 30.6878 52.2186 30.42C52.3552 30.1503 52.5458 29.9418 52.7885 29.7908C53.0329 29.6451 53.2972 29.5732 53.5831 29.5732C53.8078 29.5732 54.0289 29.629 54.2464 29.7386C54.3093 29.7764 54.3543 29.7962 54.3812 29.7962C54.4226 29.7962 54.4585 29.7818 54.4891 29.7548C54.5305 29.7117 54.5574 29.6523 54.5736 29.575H54.6563ZM46.3993 31.6119L45.8744 30.3139L45.3315 31.6119H46.3993ZM46.4623 31.7934H45.2614L45.0492 32.3004C44.9989 32.4226 44.9737 32.5161 44.9737 32.5772C44.9737 32.6294 44.9953 32.6725 45.0403 32.7067C45.0834 32.7462 45.1805 32.7714 45.3297 32.7804L45.3315 32.8685H44.3571V32.7804C44.4848 32.757 44.5693 32.7265 44.6106 32.6869C44.6861 32.6096 44.7706 32.455 44.8659 32.2249L45.9571 29.5768H46.038L47.113 32.2554C47.1993 32.4694 47.2784 32.6078 47.3503 32.6689C47.4186 32.7336 47.5175 32.7714 47.6452 32.7804V32.8685H46.4263V32.7804C46.5485 32.7732 46.6312 32.7534 46.6726 32.7157C46.7175 32.6815 46.7391 32.6366 46.7391 32.5808C46.7391 32.5125 46.7103 32.4047 46.651 32.2554L46.4623 31.7934ZM37.932 32.8667L36.7348 30.1575V32.3058C36.7348 32.5035 36.7563 32.6276 36.7995 32.6761C36.8552 32.7444 36.9451 32.7786 37.0673 32.7786H37.1752V32.8667H36.0984V32.7804H36.2062C36.3375 32.7804 36.4309 32.739 36.4867 32.6599C36.519 32.6078 36.5334 32.491 36.5334 32.3076V30.206C36.5334 30.064 36.519 29.9598 36.4903 29.895C36.4687 29.8519 36.4309 29.8123 36.3734 29.78C36.3141 29.7512 36.2224 29.7368 36.0966 29.7368V29.6487H36.9721L38.0974 32.1674L39.203 29.6487H40.0785V29.7368H39.9707C39.8394 29.7368 39.746 29.7764 39.6902 29.8573C39.6579 29.9094 39.6417 30.0263 39.6417 30.206V32.3076C39.6417 32.5053 39.6615 32.6294 39.7028 32.6779C39.7585 32.7462 39.8484 32.7804 39.9707 32.7804H40.0785V32.8685H38.7644V32.7804H38.8741C39.0089 32.7804 39.1006 32.739 39.1527 32.6599C39.1869 32.6078 39.203 32.491 39.203 32.3076V30.1593L38.0075 32.8685H37.932V32.8667ZM29.7146 31.2146C29.7434 31.2146 29.7686 31.2146 29.7901 31.2146C29.8135 31.2146 29.8315 31.2146 29.8441 31.2146C30.1407 31.2146 30.3636 31.148 30.511 31.015C30.662 30.882 30.7375 30.713 30.7375 30.5099C30.7375 30.3085 30.6764 30.1467 30.556 30.0209C30.4337 29.8968 30.2737 29.8339 30.0742 29.8339C29.9861 29.8321 29.8656 29.8465 29.7146 29.8753V31.2146ZM31.9186 32.8667H31.0881L30.04 31.3602C29.9627 31.3638 29.898 31.3656 29.8477 31.3656C29.8297 31.3656 29.8081 31.3656 29.7829 31.3656C29.7596 31.3656 29.7362 31.3638 29.7128 31.3602V32.2986C29.7128 32.4999 29.7344 32.624 29.7794 32.6725C29.8387 32.7444 29.925 32.7804 30.04 32.7804H30.1641V32.8685H28.8373V32.7804H28.9542C29.0854 32.7804 29.1789 32.7372 29.2346 32.6491C29.2652 32.597 29.2814 32.4802 29.2814 32.2986V30.2204C29.2814 30.0191 29.2616 29.8932 29.2221 29.8411C29.1627 29.7728 29.0728 29.7386 28.9542 29.7386H28.8373V29.6487H29.9645C30.2935 29.6487 30.538 29.6721 30.6926 29.7225C30.849 29.7728 30.982 29.8645 31.0899 29.9975C31.1996 30.1305 31.2535 30.2887 31.2535 30.4739C31.2535 30.6717 31.1906 30.8442 31.0665 30.9899C30.9407 31.1355 30.7501 31.2397 30.4913 31.3009L31.1294 32.2231C31.2769 32.4352 31.4009 32.5754 31.507 32.6474C31.613 32.7157 31.7515 32.7588 31.9204 32.7786V32.8667H31.9186ZM23.3129 31.6119L22.788 30.3139L22.2451 31.6119H23.3129ZM23.3776 31.7934H22.1768L21.9646 32.3004C21.9143 32.4226 21.8891 32.5161 21.8891 32.5772C21.8891 32.6294 21.9107 32.6725 21.9556 32.7067C21.9988 32.7462 22.0959 32.7714 22.2451 32.7804L22.2469 32.8685H21.2725V32.7804C21.4001 32.757 21.4846 32.7265 21.526 32.6869C21.6015 32.6096 21.686 32.455 21.7813 32.2249L22.8725 29.5768H22.9534L24.0284 32.2554C24.1147 32.4694 24.1938 32.6078 24.2657 32.6689C24.334 32.7336 24.4329 32.7714 24.5606 32.7804V32.8685H23.3417V32.7804C23.4639 32.7732 23.5466 32.7534 23.588 32.7157C23.6329 32.6815 23.6545 32.6366 23.6545 32.5808C23.6545 32.5125 23.6257 32.4047 23.5664 32.2554L23.3776 31.7934ZM14.6784 31.1409H16.113V30.2222C16.113 30.0568 16.104 29.9472 16.0879 29.895C16.0699 29.8537 16.0375 29.8195 15.989 29.7926C15.9243 29.7548 15.8542 29.735 15.7805 29.735H15.669V29.6469H16.9957V29.735H16.8843C16.8124 29.735 16.744 29.7512 16.6793 29.7872C16.629 29.8141 16.5966 29.8537 16.5804 29.9058C16.5607 29.9562 16.5517 30.0622 16.5517 30.2222V32.2968C16.5517 32.4604 16.5625 32.5665 16.5804 32.6168C16.5966 32.6563 16.6272 32.6905 16.6739 32.7193C16.7422 32.7588 16.8124 32.7786 16.8843 32.7786H16.9957V32.8667H15.669V32.7804H15.7805C15.9045 32.7804 15.998 32.7408 16.0573 32.6635C16.0933 32.6114 16.1112 32.4892 16.1112 32.2986V31.3116H14.6767V32.295C14.6767 32.4568 14.6856 32.5629 14.7036 32.6168C14.7216 32.6545 14.7522 32.6887 14.7971 32.7193C14.8618 32.7606 14.9337 32.7804 15.0092 32.7804H15.1207V32.8685H13.794V32.7804H13.9054C14.0331 32.7804 14.1247 32.7408 14.1823 32.6635C14.2182 32.6114 14.2362 32.491 14.2362 32.2986V30.224C14.2362 30.0568 14.2254 29.949 14.2038 29.895C14.1913 29.8537 14.1607 29.8195 14.1104 29.7926C14.0456 29.7548 13.9755 29.735 13.9054 29.735H13.794V29.6469H15.1207V29.735H15.0092C14.9337 29.735 14.8618 29.7512 14.7971 29.7872C14.7522 29.8141 14.7198 29.8537 14.6982 29.9058C14.6838 29.9562 14.6749 30.0622 14.6749 30.2204V31.1409H14.6784ZM7.92978 31.2254C8.01068 31.2415 8.08259 31.2523 8.14551 31.2559C8.20843 31.2667 8.26236 31.2721 8.30551 31.2721C8.46371 31.2721 8.60213 31.2074 8.71718 31.0779C8.83224 30.9503 8.88797 30.7867 8.88797 30.5854C8.88797 30.4451 8.861 30.3157 8.80527 30.1953C8.75314 30.0766 8.67404 29.9885 8.57157 29.9292C8.4709 29.8681 8.35584 29.8375 8.22821 29.8375C8.1509 29.8375 8.05023 29.8537 7.92798 29.886V31.2254H7.92978ZM7.92978 31.3602V32.2986C7.92978 32.5035 7.95135 32.6294 7.9963 32.6779C8.05203 32.7462 8.14011 32.7804 8.25697 32.7804H8.37562V32.8685H7.05249V32.7804H7.16934C7.29698 32.7804 7.39046 32.7372 7.44979 32.6491C7.47675 32.597 7.49114 32.4802 7.49114 32.2968V30.2168C7.49114 30.0155 7.47136 29.8878 7.43181 29.8375C7.37249 29.7692 7.2844 29.735 7.16934 29.735H7.05249V29.6469H8.18326C8.46011 29.6469 8.67764 29.6757 8.83583 29.735C8.99943 29.7962 9.13426 29.8968 9.24392 30.0371C9.35178 30.1773 9.40751 30.3427 9.40751 30.5386C9.40751 30.8011 9.32482 31.015 9.16122 31.1786C8.99224 31.344 8.75494 31.4285 8.44932 31.4285C8.37382 31.4285 8.29472 31.4231 8.21202 31.4123C8.12214 31.3997 8.02866 31.3818 7.92978 31.3602Z" fill="#fff"/></svg>