<svg width="28" height="28" viewBox="0 0 28 28" fill="none" xmlns="http://www.w3.org/2000/svg"><g clip-path="url(#clip0)"><path d="M2.1 5C1.82491 5 1.56378 5.05779 1.32344 5.15313L13.2016 15.5328C13.715 15.9814 14.2619 15.9817 14.7766 15.5328L26.6766 5.15313C26.4362 5.05779 26.1751 5 25.9 5H2.1ZM0.021875 6.80467C0.0086345 6.90036 0 7.00057 0 7.1V21.1C0 22.2634 0.936621 23.2 2.1 23.2H25.9C27.0634 23.2 28 22.2634 28 21.1V7.1C28 7.00057 27.9914 6.90036 27.9781 6.80467L16.1547 17.1188C14.9211 18.1947 13.0569 18.1964 11.8234 17.1188L0.021875 6.80467Z" fill="#787632"/></g><defs><clipPath id="clip0"><path fill="#fff" d="M0 0H28V28H0z"/></clipPath></defs></svg>