<svg width="20" height="20" viewBox="0 0 20 20" fill="none" xmlns="http://www.w3.org/2000/svg"><circle cx="10" cy="10" r="10" fill="#EA1337"/><path d="M11.1586 9.91893L14.2473 6.83015C14.3658 6.71169 14.3658 6.51973 14.2473 6.40137L13.4347 5.58877C13.3164 5.47041 13.1244 5.47041 13.0059 5.58877L9.91716 8.67755L6.82838 5.58877C6.71001 5.47041 6.51796 5.47041 6.39949 5.58877L5.5869 6.40137C5.46843 6.51973 5.46843 6.71169 5.5869 6.83015L8.67568 9.91893L5.587 13.0078C5.46843 13.1263 5.46843 13.3182 5.587 13.4366L6.39949 14.2492C6.51796 14.3677 6.71001 14.3677 6.82838 14.2492L9.91716 11.1605L13.0058 14.2492C13.1243 14.3677 13.3163 14.3677 13.4346 14.2492L14.2472 13.4366C14.3657 13.3182 14.3657 13.1263 14.2472 13.0078L11.1586 9.91893Z" fill="#fff"/></svg>