<svg width="8" height="10" viewBox="0 0 8 10" fill="none" xmlns="http://www.w3.org/2000/svg"><path fill-rule="evenodd" clip-rule="evenodd" d="M4.82007 2.11873C6.22869 2.3983 7.30968 4.02534 7.30968 5.99063C7.30968 8.15261 6.00165 9.90527 4.38831 9.90527C2.77485 9.90527 1.46694 8.15261 1.46694 5.99063C1.46694 4.02522 2.5477 2.3983 3.95643 2.11873C3.95537 2.10479 3.95466 2.09074 3.95466 2.0761V0.518018C3.95466 -0.0522299 4.82184 -0.0522299 4.82184 0.518018V2.0761C4.82184 2.09074 4.82101 2.10491 4.82007 2.11873ZM3.84923 1.14989C3.16257 0.135609 2.03306 0.123095 0.687012 0.214948C0.687012 0.214948 0.814285 2.09936 3.84923 1.14989Z" fill="#787632"/></svg>