<svg width="40" height="40" viewBox="0 0 40 40" fill="none" xmlns="http://www.w3.org/2000/svg"><path d="M26.3841 7.42158C27.7482 7.42158 28.8541 6.30695 28.8541 4.93198C28.8541 3.55701 27.7482 2.44238 26.3841 2.44238C25.0199 2.44238 23.9141 3.55701 23.9141 4.93198C23.9141 6.30695 25.0199 7.42158 26.3841 7.42158Z" fill="#333"/><path d="M22.3544 28.7287L23.856 28.7303L24.8204 37.7131L26.3676 37.7559L26.3964 28.7303H27.0544L27.0344 37.7131H28.4536L29.5416 28.7303L31.1288 28.7215L29.4672 14.1627H30.0284L30.976 22.5355L32.616 21.0975L30.83 8.47549L22.0092 8.46509L20.6504 21.1895L22.272 22.4651L22.9012 14.1747L23.4468 14.1895L22.3544 28.7287Z" fill="#333"/><path d="M13.1409 6.8695C14.4085 6.8695 15.4361 5.83402 15.4361 4.5567C15.4361 3.27937 14.4085 2.2439 13.1409 2.2439C11.8733 2.2439 10.8457 3.27937 10.8457 4.5567C10.8457 5.83402 11.8733 6.8695 13.1409 6.8695Z" fill="#333"/><path d="M24.2776 35.7725L24.1512 34.5965H5.12921V17.3565H20.7252L20.8944 15.7725H18.5012L17.4912 7.68327L8.85681 7.67407L8.11761 15.7725H2.63281V17.3565H3.95321V35.7725H24.2776ZM16.7836 13.5525L17.0148 15.7725H16.4848L16.288 13.5525H16.7836ZM9.64401 13.5633L10.1256 13.5757L10.0128 15.7725H9.49761L9.64401 13.5633Z" fill="#333"/><path d="M37.3666 15.7725H32.2002L32.239 16.0473L32.4054 17.2233L32.4242 17.3561H34.7094V34.5965H29.1678L29.0254 35.7725H35.8854V17.3561H37.3666V15.7725Z" fill="#333"/><path d="M13.2858 20.9448C10.637 20.9448 8.49023 23.092 8.49023 25.7404C8.49023 28.3892 10.6374 30.536 13.2858 30.536C15.9346 30.536 18.0814 28.3888 18.0814 25.7404C18.0818 23.0916 15.9346 20.9448 13.2858 20.9448ZM16.2842 26.5512H14.0822V28.6884H12.4902V26.5512H10.2878V24.9648H12.4902V22.7924H14.0822V24.9648H16.2842V26.5512Z" fill="#333"/></svg>