<svg width="50" height="50" viewBox="0 0 50 50" fill="none" xmlns="http://www.w3.org/2000/svg"><path fill-rule="evenodd" clip-rule="evenodd" d="M27.1342 16.0483C30.9261 16.0483 34 19.9979 34 24.8697C34 26.7633 32.8888 28.6127 32.0984 30.1663C29.2486 34.578 28.9252 34.578 27.1342 36.8423C25.6915 34.8931 25.3681 34.8931 22.1702 30.1663C21.3799 28.6127 20.2688 26.7633 20.2688 24.8697C20.2688 19.9979 23.3424 16.0483 27.1342 16.0483ZM26.4012 16.7937C27.0233 16.7937 27.5273 17.1253 27.5273 17.5342C27.5273 17.9432 27.0233 18.2748 26.4012 18.2748C25.7794 18.2748 25.2751 17.9432 25.2751 17.5342C25.2751 17.1253 25.7794 16.7937 26.4012 16.7937Z" fill="#787632"/><path d="M17.412 13.3543L16.1265 13.1754C16.1045 13.1723 16.0957 13.2021 16.1159 13.2114C16.5193 13.3959 17.896 14.0108 19.0259 14.3373C20.3369 14.7161 21.3972 14.9264 22.7581 15.1237C23.5413 15.2372 23.8677 15.3202 24.7756 15.4185C25.5054 15.4976 26.3895 15.91 26.6921 15.3202C26.8487 15.0151 25.0943 14.4288 23.9686 14.1407C23.0092 13.8952 22.4325 13.9307 21.4468 13.8065C20.6201 13.7023 20.1582 13.6287 19.3285 13.5509C18.8957 13.5104 18.6509 13.5104 18.2189 13.4625C17.9029 13.4274 17.412 13.3543 17.412 13.3543Z" fill="#787632"/></svg>