<svg width="50" height="50" viewBox="0 0 50 50" fill="none" xmlns="http://www.w3.org/2000/svg"><path fill-rule="evenodd" clip-rule="evenodd" d="M29.5057 6.10254C37.5106 6.10254 43.9998 14.4405 43.9998 24.7252C43.9998 28.7226 41.6541 32.627 39.9855 35.9067C33.9692 45.2201 33.2866 45.2201 29.5057 50.0002C26.4599 45.8854 25.7772 45.8854 19.0263 35.9067C17.3578 32.627 15.0122 28.7226 15.0122 24.7252C15.0122 14.4405 21.5008 6.10254 29.5057 6.10254ZM27.9582 7.67602C29.2715 7.67602 30.3355 8.37603 30.3355 9.23939C30.3355 10.1027 29.2715 10.8027 27.9582 10.8027C26.6455 10.8027 25.5808 10.1027 25.5808 9.23939C25.5808 8.37603 26.6455 7.67602 27.9582 7.67602Z" fill="url(#paint0_linear)"/><path d="M8.98126 0.415026L6.26767 0.0372626C6.22114 0.0307853 6.20255 0.0937466 6.24527 0.11329C7.09674 0.502828 10.0032 1.80101 12.3884 2.49015C15.1561 3.28979 17.3944 3.73384 20.2675 4.15026C21.9208 4.38988 22.6099 4.56528 24.5264 4.77279C26.0672 4.93962 27.9336 5.81036 28.5724 4.56528C28.9029 3.92117 25.1994 2.68331 22.8228 2.07513C20.7976 1.55684 19.58 1.6319 17.4992 1.36958C15.754 1.14958 14.7789 0.994184 13.0273 0.830051C12.1137 0.744443 11.5968 0.74456 10.6848 0.643343C10.0176 0.569284 8.98126 0.415026 8.98126 0.415026Z" fill="url(#paint1_linear)"/><defs><linearGradient id="paint0_linear" x1="16.365" y1="6.103" x2="30.632" y2="53.77" gradientUnits="userSpaceOnUse"><stop stop-color="#C1BE49"/><stop offset="1" stop-color="#848121"/></linearGradient><linearGradient id="paint1_linear" x1="7.054" y1="0" x2="7.336" y2="6.168" gradientUnits="userSpaceOnUse"><stop stop-color="#C1BE49"/><stop offset="1" stop-color="#848121"/></linearGradient></defs></svg>