<svg width="100" height="50" viewBox="0 0 100 50" fill="none" xmlns="http://www.w3.org/2000/svg"><g clip-path="url(#clip0)" fill="#787632"><path d="M80.5 34.4998V36.0998C80.5 37.3998 79.4 38.4998 78.1 38.4998H8.5C7.2 38.4998 6.1 37.3998 6.1 36.0998V13.8998C6.1 12.5998 7.1 11.4998 8.5 11.4998H78.1C79.4 11.4998 80.5 12.4998 80.5 13.8998V14.3998L83.6 11.2998C82.7 9.2998 80.6 7.7998 78.2 7.7998H8.5C5.2 7.7998 2.5 10.4998 2.5 13.7998V35.9998C2.5 39.2998 5.2 41.9998 8.5 41.9998H78.1C81.4 41.9998 84.1 39.2998 84.1 35.9998V32.3998C83.1 33.2998 81.8 33.9998 80.5 34.4998Z"/><path d="M73.1999 31.1C72.8999 32 73.6999 32.8 74.5999 32.5L79.2999 30.9C80.1999 30.6 80.9999 30.1 81.7999 29.5L76.1999 24C75.5999 24.7 75.0999 25.6 74.7999 26.5L73.1999 31.1Z"/><path d="M96.7002 11.1L94.7002 9C93.7002 8 92.1002 8 91.1002 9L78.7002 21.3L84.4002 27L96.7002 14.7C97.8002 13.8 97.8002 12.1 96.7002 11.1Z"/><path d="M27.1997 23.9997C27.8997 23.3997 27.4997 22.2997 26.5997 22.1997L22.7997 21.8997C22.3997 21.8997 22.0997 21.5997 21.9997 21.2997L20.4997 17.7997C20.1997 16.9997 18.9997 16.9997 18.6997 17.7997L17.1997 21.2997C17.0997 21.5997 16.6997 21.8997 16.3997 21.8997L12.5997 22.1997C11.6997 22.2997 11.3997 23.3997 11.9997 23.9997L14.8997 26.4997C15.1997 26.6997 15.2997 27.0997 15.1997 27.4997L14.2997 31.1997C14.0997 32.0997 14.9997 32.6997 15.7997 32.2997L19.0997 30.2997C19.3997 30.0997 19.7997 30.0997 20.0997 30.2997L23.3997 32.2997C24.1997 32.7997 25.0997 32.0997 24.8997 31.1997L23.9997 27.3997C23.8997 26.9997 23.9997 26.6997 24.2997 26.3997L27.1997 23.9997Z"/><path d="M48.1997 23.9997C48.8997 23.3997 48.4997 22.2997 47.5997 22.1997L43.7997 21.8997C43.3997 21.8997 43.0997 21.5997 42.9997 21.2997L41.4997 17.7997C41.1997 16.9997 39.9997 16.9997 39.6997 17.7997L38.1997 21.2997C38.0997 21.5997 37.6997 21.8997 37.3997 21.8997L33.5997 22.1997C32.6997 22.2997 32.3997 23.3997 32.9997 23.9997L35.8997 26.4997C36.1997 26.6997 36.2997 27.0997 36.1997 27.4997L35.2997 31.1997C35.0997 32.0997 35.9997 32.6997 36.7997 32.2997L40.0997 30.2997C40.3997 30.0997 40.7997 30.0997 41.0997 30.2997L44.3997 32.2997C45.1997 32.7997 46.0997 32.0997 45.8997 31.1997L44.9997 27.3997C44.8997 26.9997 44.9997 26.6997 45.2997 26.3997L48.1997 23.9997Z"/><path d="M69.1 23.9997C69.8 23.3997 69.4 22.2997 68.5 22.1997L64.7 21.8997C64.3 21.8997 64 21.5997 63.9 21.2997L62.4 17.7997C62.1 16.9997 60.9 16.9997 60.6 17.7997L59.1 21.2997C59 21.5997 58.6 21.8997 58.3 21.8997L54.5 22.1997C53.6 22.2997 53.3 23.3997 53.9 23.9997L56.8 26.4997C57.1 26.6997 57.2 27.0997 57.1 27.4997L56.2 31.1997C56 31.9997 57 32.6997 57.7 32.1997L61 30.1997C61.3 29.9997 61.7 29.9997 62 30.1997L65.3 32.1997C66.1 32.6997 67 31.9997 66.8 31.0997L65.9 27.3997C65.8 26.9997 65.9 26.6997 66.2 26.3997L69.1 23.9997Z"/></g><defs><clipPath id="clip0"><path fill="#fff" d="M0 0H100V50H0z"/></clipPath></defs></svg>