<svg width="16" height="16" viewBox="0 0 16 16" fill="none" xmlns="http://www.w3.org/2000/svg"><path d="M3.48005 14.607L4.55051 10.5009C4.55066 10.5003 4.5508 10.4998 4.55094 10.4993C4.66809 10.0572 4.49289 9.59044 4.16349 9.31594L4.16032 9.31332L0.882178 6.62685C0.88196 6.62667 0.881743 6.62649 0.881527 6.62631C0.762079 6.52662 0.830241 6.35091 0.973674 6.34336L0.973675 6.34337L0.977528 6.34314L5.21753 6.08714L5.21858 6.08708C5.66549 6.05914 6.05923 5.77876 6.22763 5.35774L6.22764 5.35775L6.22879 5.35482L7.78005 1.40471C7.83677 1.26523 8.0258 1.26516 8.08265 1.4045L9.63375 5.37018L9.63373 5.37018L9.63516 5.37374C9.80356 5.79476 10.1973 6.07514 10.6442 6.10308L10.6451 6.10313L14.8691 6.35913L14.8691 6.35915L14.8731 6.35936C15.0167 6.36692 15.0849 6.54298 14.9649 6.64262C14.9648 6.6427 14.9647 6.64278 14.9646 6.64285L11.691 9.3416C11.3247 9.62804 11.1917 10.079 11.2731 10.4861L11.276 10.5005L11.2797 10.5146L12.3508 14.6072C12.3854 14.7517 12.2339 14.857 12.1098 14.7809L8.53518 12.4989C8.1513 12.2385 7.66435 12.2516 7.28502 12.4955L3.72069 14.7811C3.59658 14.8568 3.44529 14.7515 3.48005 14.607Z" stroke="#7F8DA2"/></svg>