<svg width="16" height="16" viewBox="0 0 16 16" fill="none" xmlns="http://www.w3.org/2000/svg"><path d="M12.0034 9.73205L15.2834 7.02805C15.7474 6.64405 15.5074 5.89205 14.8994 5.86005L10.6754 5.60405C10.4194 5.58805 10.1954 5.42805 10.0994 5.18805L8.54739 1.22005C8.32339 0.660049 7.53939 0.660049 7.31539 1.22005L5.76339 5.17205C5.66739 5.41205 5.44339 5.57205 5.18739 5.58805L0.947394 5.84405C0.339394 5.87605 0.0993943 6.62805 0.563394 7.01205L3.84339 9.70005C4.03539 9.86005 4.13139 10.132 4.06739 10.372L2.99539 14.484C2.85139 15.0601 3.47539 15.524 3.98739 15.2041L7.55539 12.9161C7.77939 12.7721 8.05139 12.7721 8.25939 12.9161L11.8434 15.2041C12.3554 15.524 12.9794 15.0601 12.8354 14.484L11.7634 10.388C11.7154 10.148 11.7954 9.89205 12.0034 9.73205Z" fill="#7F8DA2"/></svg>