<svg width="80" height="80" viewBox="0 0 80 80" fill="none" xmlns="http://www.w3.org/2000/svg"><g clip-path="url(#clip0)" fill="#7F8DA2"><path d="M2.7663 17.5418C1.23562 17.5418 0 16.297 0 14.7663C0 13.2448 1.23562 12 2.7663 12H21.4573C22.7206 12 23.781 12.8391 24.1129 13.9917L39.3276 52.1483H69.7201L74.1554 29.9994H39.4567C37.926 29.9994 36.6904 28.7638 36.6904 27.2331C36.6904 25.7024 37.926 24.4576 39.4567 24.4576H77.5303C77.7055 24.4576 77.8899 24.476 78.0743 24.5129C79.5681 24.8172 80.5455 26.2741 80.2412 27.7679L74.7271 55.3664C74.515 56.685 73.3716 57.6901 71.9884 57.6901H37.465V57.6809C36.3677 57.6809 35.3349 57.017 34.9015 55.9381L19.5947 17.5418H2.7663Z"/><path d="M43.1375 68.7584C45.7602 68.7584 47.8863 66.6323 47.8863 64.0096C47.8863 61.3869 45.7602 59.2607 43.1375 59.2607C40.5148 59.2607 38.3887 61.3869 38.3887 64.0096C38.3887 66.6323 40.5148 68.7584 43.1375 68.7584Z"/><path d="M68.0232 68.7584C70.6459 68.7584 72.7721 66.6323 72.7721 64.0096C72.7721 61.3869 70.6459 59.2607 68.0232 59.2607C65.4005 59.2607 63.2744 61.3869 63.2744 64.0096C63.2744 66.6323 65.4005 68.7584 68.0232 68.7584Z"/></g><defs><clipPath id="clip0"><path fill="#fff" d="M0 0H80V80H0z"/></clipPath></defs></svg>