<svg width="14" height="16" viewBox="0 0 14 16" fill="none" xmlns="http://www.w3.org/2000/svg"><path d="M13.2507 13.0427L10.2 10.6127C9.93095 10.4018 9.66664 10.2946 9.41395 10.2946C8.92413 10.2946 8.67254 10.692 8.65699 10.7177L7.81602 12.2614C7.06204 12.2252 5.48797 10.857 4.20507 9.11699C3.3275 7.92671 2.84254 6.89377 2.91148 6.36622C3.18019 6.27141 4.00012 5.99141 4.5735 5.79609C4.5881 5.78992 4.93517 5.64272 5.06992 5.2649C5.17184 4.97889 5.12567 4.64934 4.93219 4.28482L3.10166 0.872278L3.08062 0.841096C2.89986 0.624251 2.63398 0.5 2.35146 0.5C2.13489 0.5 1.91927 0.573443 1.74243 0.70719C1.589 0.789655 0.530356 1.40869 0.173235 2.96365C-0.430606 5.58795 0.57323 8.95792 2.73072 11.5491C4.72897 13.9493 7.62285 15.5 10.1039 15.5C10.104 15.5 10.1042 15.5 10.1043 15.5C10.276 15.5 10.4462 15.4921 10.61 15.4767C12.223 15.3246 13.0442 14.5069 13.1413 14.4045C13.5395 14.0581 13.5893 13.4499 13.2507 13.0427Z" fill="#787632"/></svg>