<svg width="40" height="40" viewBox="0 0 40 40" fill="none" xmlns="http://www.w3.org/2000/svg"><path d="M19.0894 32.9936H26.7669C26.843 32.9936 26.916 33.0238 26.9698 33.0776C27.0236 33.1314 27.0538 33.2044 27.0538 33.2805V37.158C27.0559 37.4002 27.0098 37.6403 26.9182 37.8644C26.8266 38.0885 26.6914 38.2922 26.5203 38.4636C26.3493 38.635 26.1459 38.7707 25.9219 38.8627C25.698 38.9548 25.458 39.0014 25.2159 38.9999H19.0894C19.0139 38.9988 18.9419 38.9682 18.889 38.9145C18.836 38.8608 18.8063 38.7884 18.8063 38.7129V33.2844C18.8058 33.2467 18.8127 33.2093 18.8266 33.1743C18.8406 33.1393 18.8613 33.1073 18.8876 33.0803C18.9139 33.0533 18.9452 33.0318 18.9798 33.0169C19.0145 33.002 19.0517 32.9941 19.0894 32.9936ZM13.3118 37.1735C13.3118 37.6572 13.5037 38.1212 13.8454 38.4636C14.187 38.806 14.6506 38.9988 15.1343 38.9999H15.933C16.0085 38.9988 16.0805 38.9682 16.1334 38.9145C16.1864 38.8608 16.2161 38.7884 16.2161 38.7129V33.2844C16.2161 33.2089 16.1864 33.1365 16.1334 33.0828C16.0805 33.0291 16.0085 32.9985 15.933 32.9974H13.5832C13.5071 32.9974 13.4342 33.0277 13.3804 33.0815C13.3265 33.1353 13.2963 33.2083 13.2963 33.2844L13.3118 37.1735ZM31.3656 4.73407V7.63059C31.3661 8.85922 31.1562 10.0789 30.7452 11.2367L30.6444 11.4694C30.2334 12.6272 30.0236 13.8468 30.024 15.0755V29.4223C30.0245 29.8095 29.9019 30.1867 29.674 30.4997C29.4461 30.8126 29.1246 31.045 28.7561 31.1634C28.5757 31.2215 28.3872 31.2503 28.1977 31.2487H12.1369C11.9474 31.2503 11.7589 31.2215 11.5786 31.1634C11.21 31.045 10.8885 30.8126 10.6606 30.4997C10.4327 30.1867 10.3102 29.8095 10.3106 29.4223V15.0755C10.316 13.8477 10.1115 12.6281 9.70571 11.4694L9.62041 11.2212C9.20939 10.0633 8.99956 8.84371 9 7.61508V4.73407C9.00047 4.27499 9.09551 3.82093 9.27918 3.4002L9.45367 3.01244C9.70995 2.41782 10.134 1.91079 10.6739 1.55337C11.2138 1.19596 11.8462 1.00366 12.4937 1H27.8565C28.5053 0.999659 29.1401 1.18883 29.6829 1.54427C30.2257 1.89971 30.6529 2.40595 30.912 3.00081L31.0865 3.38856C31.2717 3.81289 31.3668 4.27107 31.3656 4.73407ZM13.9477 6.88998C13.9477 7.12034 14.0392 7.34126 14.2021 7.50415C14.365 7.66704 14.5859 7.75855 14.8163 7.75855H25.5183C25.637 7.76649 25.756 7.74997 25.8681 7.71002C25.9801 7.67006 26.0827 7.60752 26.1696 7.52626C26.2565 7.44501 26.3257 7.34678 26.3731 7.23766C26.4204 7.12855 26.4449 7.01087 26.4449 6.89192C26.4449 6.77297 26.4204 6.65529 26.3731 6.54617C26.3257 6.43705 26.2565 6.33882 26.1696 6.25757C26.0827 6.17632 25.9801 6.11378 25.8681 6.07382C25.756 6.03386 25.637 6.01734 25.5183 6.02529H14.8163C14.7024 6.02478 14.5896 6.04677 14.4842 6.08999C14.3789 6.13322 14.2831 6.19683 14.2024 6.27718C14.1217 6.35752 14.0576 6.45302 14.0139 6.55818C13.9702 6.66334 13.9477 6.7761 13.9477 6.88998ZM13.3235 12.3185V14.8389C13.3224 14.9239 13.3385 15.0082 13.3707 15.0868C13.403 15.1655 13.4508 15.2368 13.5112 15.2965C13.5717 15.3562 13.6435 15.4031 13.7225 15.4344C13.8015 15.4658 13.886 15.4808 13.971 15.4787H26.4179C26.5842 15.4777 26.7434 15.4112 26.8609 15.2936C26.9785 15.176 27.045 15.0168 27.0461 14.8506V11.6089C27.0461 11.5265 27.0298 11.4448 26.9982 11.3686C26.9667 11.2923 26.9204 11.2231 26.8621 11.1648C26.8037 11.1064 26.7345 11.0602 26.6583 11.0286C26.5821 10.997 26.5004 10.9808 26.4179 10.9808H13.971C13.8044 10.9808 13.6446 11.047 13.5268 11.1648C13.409 11.2826 13.3428 11.4423 13.3428 11.6089L13.3235 12.3185ZM16.3247 27.7201C16.3247 27.4908 16.2336 27.2708 16.0714 27.1087C15.9092 26.9465 15.6893 26.8554 15.46 26.8554H14.1881C14.0695 26.8475 13.9504 26.864 13.8384 26.9039C13.7263 26.9439 13.6237 27.0064 13.5368 27.0877C13.45 27.169 13.3807 27.2672 13.3334 27.3763C13.286 27.4854 13.2616 27.6031 13.2616 27.722C13.2616 27.841 13.286 27.9587 13.3334 28.0678C13.3807 28.1769 13.45 28.2751 13.5368 28.3564C13.6237 28.4376 13.7263 28.5002 13.8384 28.5401C13.9504 28.5801 14.0695 28.5966 14.1881 28.5887H15.46C15.688 28.5887 15.9067 28.4986 16.0687 28.3382C16.2306 28.1777 16.3226 27.9597 16.3247 27.7317V27.7201ZM16.3247 23.3811C16.3247 23.1518 16.2336 22.9319 16.0714 22.7697C15.9092 22.6076 15.6893 22.5165 15.46 22.5165H14.1881C14.0695 22.5085 13.9504 22.525 13.8384 22.565C13.7263 22.6049 13.6237 22.6675 13.5368 22.7487C13.45 22.83 13.3807 22.9282 13.3334 23.0373C13.286 23.1465 13.2616 23.2641 13.2616 23.3831C13.2616 23.502 13.286 23.6197 13.3334 23.7288C13.3807 23.8379 13.45 23.9362 13.5368 24.0174C13.6237 24.0987 13.7263 24.1612 13.8384 24.2012C13.9504 24.2411 14.0695 24.2577 14.1881 24.2497H15.46C15.688 24.2497 15.9067 24.1597 16.0687 23.9992C16.2306 23.8387 16.3226 23.6208 16.3247 23.3928V23.3811ZM16.3247 19.0422C16.3247 18.8128 16.2336 18.5929 16.0714 18.4307C15.9092 18.2686 15.6893 18.1775 15.46 18.1775H14.1881C14.0695 18.1695 13.9504 18.1861 13.8384 18.226C13.7263 18.266 13.6237 18.3285 13.5368 18.4098C13.45 18.491 13.3807 18.5893 13.3334 18.6984C13.286 18.8075 13.2616 18.9252 13.2616 19.0441C13.2616 19.1631 13.286 19.2807 13.3334 19.3899C13.3807 19.499 13.45 19.5972 13.5368 19.6785C13.6237 19.7597 13.7263 19.8223 13.8384 19.8622C13.9504 19.9022 14.0695 19.9187 14.1881 19.9107H15.46C15.688 19.9108 15.9067 19.8207 16.0687 19.6602C16.2306 19.4997 16.3226 19.2818 16.3247 19.0538V19.0422ZM21.6718 27.7317C21.6708 27.5021 21.5788 27.2821 21.416 27.1201C21.2532 26.958 21.0329 26.867 20.8032 26.867H19.5314C19.4127 26.8591 19.2937 26.8756 19.1816 26.9156C19.0696 26.9555 18.967 27.0181 18.8801 27.0993C18.7932 27.1806 18.724 27.2788 18.6766 27.3879C18.6293 27.4971 18.6048 27.6147 18.6048 27.7337C18.6048 27.8526 18.6293 27.9703 18.6766 28.0794C18.724 28.1885 18.7932 28.2868 18.8801 28.368C18.967 28.4493 19.0696 28.5118 19.1816 28.5518C19.2937 28.5917 19.4127 28.6083 19.5314 28.6003H20.8032C21.0336 28.6003 21.2545 28.5088 21.4174 28.3459C21.5803 28.183 21.6718 27.9621 21.6718 27.7317ZM21.6718 23.3928C21.6708 23.1631 21.5788 22.9432 21.416 22.7811C21.2532 22.6191 21.0329 22.5281 20.8032 22.5281H19.5314C19.4127 22.5201 19.2937 22.5367 19.1816 22.5766C19.0696 22.6166 18.967 22.6791 18.8801 22.7604C18.7932 22.8416 18.724 22.9398 18.6766 23.049C18.6293 23.1581 18.6048 23.2758 18.6048 23.3947C18.6048 23.5137 18.6293 23.6313 18.6766 23.7405C18.724 23.8496 18.7932 23.9478 18.8801 24.0291C18.967 24.1103 19.0696 24.1729 19.1816 24.2128C19.2937 24.2528 19.4127 24.2693 19.5314 24.2613H20.8032C21.0336 24.2613 21.2545 24.1698 21.4174 24.0069C21.5803 23.8441 21.6718 23.6231 21.6718 23.3928ZM21.6718 19.0538C21.6708 18.8241 21.5788 18.6042 21.416 18.4421C21.2532 18.2801 21.0329 18.1891 20.8032 18.1891H19.5314C19.4127 18.1812 19.2937 18.1977 19.1816 18.2377C19.0696 18.2776 18.967 18.3402 18.8801 18.4214C18.7932 18.5027 18.724 18.6009 18.6766 18.71C18.6293 18.8191 18.6048 18.9368 18.6048 19.0557C18.6048 19.1747 18.6293 19.2924 18.6766 19.4015C18.724 19.5106 18.7932 19.6088 18.8801 19.6901C18.967 19.7713 19.0696 19.8339 19.1816 19.8738C19.2937 19.9138 19.4127 19.9303 19.5314 19.9224H20.8032C21.0336 19.9224 21.2545 19.8309 21.4174 19.668C21.5803 19.5051 21.6718 19.2842 21.6718 19.0538ZM27.015 27.7317C27.014 27.5021 26.922 27.2821 26.7593 27.1201C26.5965 26.958 26.3762 26.867 26.1465 26.867H24.8746C24.756 26.8591 24.6369 26.8756 24.5249 26.9156C24.4128 26.9555 24.3102 27.0181 24.2233 27.0993C24.1365 27.1806 24.0672 27.2788 24.0198 27.3879C23.9725 27.4971 23.9481 27.6147 23.9481 27.7337C23.9481 27.8526 23.9725 27.9703 24.0198 28.0794C24.0672 28.1885 24.1365 28.2868 24.2233 28.368C24.3102 28.4493 24.4128 28.5118 24.5249 28.5518C24.6369 28.5917 24.756 28.6083 24.8746 28.6003H26.1465C26.3768 28.6003 26.5977 28.5088 26.7606 28.3459C26.9235 28.183 27.015 27.9621 27.015 27.7317ZM27.015 23.3928C27.014 23.1631 26.922 22.9432 26.7593 22.7811C26.5965 22.6191 26.3762 22.5281 26.1465 22.5281H24.8746C24.756 22.5201 24.6369 22.5367 24.5249 22.5766C24.4128 22.6166 24.3102 22.6791 24.2233 22.7604C24.1365 22.8416 24.0672 22.9398 24.0198 23.049C23.9725 23.1581 23.9481 23.2758 23.9481 23.3947C23.9481 23.5137 23.9725 23.6313 24.0198 23.7405C24.0672 23.8496 24.1365 23.9478 24.2233 24.0291C24.3102 24.1103 24.4128 24.1729 24.5249 24.2128C24.6369 24.2528 24.756 24.2693 24.8746 24.2613H26.1465C26.3768 24.2613 26.5977 24.1698 26.7606 24.0069C26.9235 23.8441 27.015 23.6231 27.015 23.3928ZM27.015 19.0538C27.014 18.8241 26.922 18.6042 26.7593 18.4421C26.5965 18.2801 26.3762 18.1891 26.1465 18.1891H24.8746C24.756 18.1812 24.6369 18.1977 24.5249 18.2377C24.4128 18.2776 24.3102 18.3402 24.2233 18.4214C24.1365 18.5027 24.0672 18.6009 24.0198 18.71C23.9725 18.8191 23.9481 18.9368 23.9481 19.0557C23.9481 19.1747 23.9725 19.2924 24.0198 19.4015C24.0672 19.5106 24.1365 19.6088 24.2233 19.6901C24.3102 19.7713 24.4128 19.8339 24.5249 19.8738C24.6369 19.9138 24.756 19.9303 24.8746 19.9224H26.1465C26.3768 19.9224 26.5977 19.8309 26.7606 19.668C26.9235 19.5051 27.015 19.2842 27.015 19.0538Z" fill="#6B6B6B"/></svg>