<svg width="60" height="16" viewBox="0 0 60 16" fill="none" xmlns="http://www.w3.org/2000/svg"><path d="M38.8504 5.05622C39.1912 5.05622 39.4832 4.93343 39.7266 4.68785C39.9822 4.42998 40.11 4.12913 40.11 3.78531C40.11 3.44149 39.9883 3.14679 39.7449 2.9012C39.5015 2.64334 39.2033 2.5144 38.8504 2.5144C38.4975 2.5144 38.1993 2.64334 37.9559 2.9012C37.7125 3.14679 37.5908 3.44149 37.5908 3.78531C37.5908 4.12913 37.7125 4.42998 37.9559 4.68785C38.2115 4.93343 38.5097 5.05622 38.8504 5.05622Z" fill="#333"/><path d="M19.8338 14.068C18.9814 14.8383 17.8812 15.2234 16.5334 15.2234C15.1855 15.2234 14.0853 14.8383 13.2329 14.068C12.3803 13.2861 11.9541 12.2416 11.9541 10.9346V2.74194H13.9413V10.812C13.9413 11.5589 14.1545 12.1541 14.5807 12.5976C15.0184 13.041 15.6693 13.2628 16.5334 13.2628C17.3973 13.2628 18.0425 13.041 18.4687 12.5976C18.9065 12.1541 19.1253 11.5589 19.1253 10.812V2.74194H21.1126V10.9346C21.1126 12.2416 20.6863 13.2861 19.8338 14.068Z" fill="#333"/><path d="M32.6498 6.0155C33.6289 6.0155 34.4181 6.33643 35.0171 6.97828C35.6162 7.62018 35.9157 8.48379 35.9157 9.56911V14.9959H34.0494V9.69165C34.0494 9.0848 33.8997 8.618 33.6001 8.29122C33.3006 7.95277 32.8917 7.78353 32.3733 7.78353C31.7973 7.78353 31.3364 7.9761 30.9909 8.36125C30.6568 8.74635 30.4897 9.32403 30.4897 10.0943V14.9959H28.6235V9.69165C28.6235 9.0848 28.4795 8.618 28.1915 8.29122C27.915 7.95277 27.5176 7.78353 26.9992 7.78353C26.4347 7.78353 25.9739 7.98195 25.6168 8.37872C25.2596 8.76387 25.0811 9.33569 25.0811 10.0943V14.9959H23.2148V6.24307H25.0811V7.2934C25.634 6.44145 26.4577 6.0155 27.5521 6.0155C28.658 6.0155 29.476 6.47645 30.0059 7.39842C30.5819 6.47645 31.4632 6.0155 32.6498 6.0155Z" fill="#333"/><path d="M37.9121 6.24316V14.9959H39.7783V6.24316H37.9121Z" fill="#333"/><path d="M46.0226 15.2234C44.7209 15.2234 43.6323 14.78 42.7568 13.893C41.8929 13.006 41.4609 11.9149 41.4609 10.6194C41.4609 9.31236 41.8929 8.22119 42.7568 7.34591C43.6323 6.45897 44.7209 6.0155 46.0226 6.0155C46.8639 6.0155 47.6297 6.2197 48.3209 6.62817C49.0122 7.03665 49.5307 7.58514 49.8761 8.2737L48.269 9.219C48.0732 8.79886 47.774 8.47208 47.3704 8.2387C46.9789 7.99362 46.5238 7.87108 46.0053 7.87108C45.2452 7.87108 44.6059 8.13364 44.0874 8.65884C43.5804 9.18401 43.3269 9.83753 43.3269 10.6194C43.3269 11.4014 43.5804 12.0549 44.0874 12.5801C44.6059 13.1052 45.2452 13.3678 46.0053 13.3678C46.5123 13.3678 46.9673 13.2453 47.3704 13.0002C47.7855 12.7551 48.0963 12.4284 48.3036 12.0199L49.9107 12.9477C49.5422 13.6479 49.0122 14.2022 48.3209 14.6107C47.6297 15.0192 46.8639 15.2234 46.0226 15.2234Z" fill="#333"/><path fill-rule="evenodd" clip-rule="evenodd" d="M51.9565 13.893C52.8435 14.7799 53.9206 15.2234 55.1876 15.2234C56.4666 15.2234 57.5437 14.7799 58.4192 13.893C59.3062 13.006 59.7497 11.9149 59.7497 10.6194C59.7497 9.32403 59.3062 8.23285 58.4192 7.34591C57.5437 6.45897 56.4666 6.0155 55.1876 6.0155C53.9206 6.0155 52.8435 6.45897 51.9565 7.34591C51.0695 8.23285 50.626 9.32403 50.626 10.6194C50.626 11.9149 51.0695 13.006 51.9565 13.893ZM55.1876 13.3853C54.4276 13.3853 53.7878 13.1227 53.2697 12.5976C52.7512 12.0724 52.4919 11.413 52.4919 10.6194C52.4919 9.82586 52.7512 9.16649 53.2697 8.64133C53.7878 8.11616 54.4276 7.85356 55.1876 7.85356C55.9481 7.85356 56.5874 8.11616 57.1059 8.64133C57.6241 9.16649 57.8833 9.82586 57.8833 10.6194C57.8833 11.413 57.6241 12.0724 57.1059 12.5976C56.5874 13.1227 55.9481 13.3853 55.1876 13.3853Z" fill="#333"/><path d="M0.194873 0.0412598C3.7948 0.307456 5.78897 0.299571 9.31492 0.0412598C9.31492 0.0412598 8.95533 4.01081 9.31492 6.51738C9.37951 6.96778 9.5098 7.66668 9.5098 7.66668H0C0 7.66668 0.130259 6.96778 0.194873 6.51738C0.221726 6.33021 0.244569 6.13487 0.26385 5.93365C0.502766 3.44008 0.194873 0.0412598 0.194873 0.0412598Z" fill="#F81A5D"/><path d="M4.78584 5.25231C5.33961 5.25231 5.78374 5.06003 6.13397 4.72991C6.48425 4.3948 6.67521 3.90612 6.67521 3.34595H5.84701C5.84701 3.66605 5.75299 3.90965 5.57311 4.09971C5.39798 4.28978 5.14086 4.38083 4.78584 4.38083C4.43087 4.38083 4.15553 4.28978 3.97565 4.09971C3.80052 3.90965 3.7247 3.66605 3.7247 3.34595H2.89648C2.89648 3.90612 3.07161 4.3948 3.42187 4.72991C3.77213 5.06003 4.23207 5.25231 4.78584 5.25231Z" fill="#FDFFFC"/></svg>