<svg width="29" height="28" viewBox="0 0 29 28" fill="none" xmlns="http://www.w3.org/2000/svg"><g clip-path="url(#clip0)"><path d="M2.29981 14C2.29981 7.37258 12.7998 6 14.2998 -8C16.7998 6 26.2998 7.37258 26.2998 14C26.2998 20.6274 20.9272 26 14.2998 26C7.67239 26 2.29981 20.6274 2.29981 14Z" fill="#EBE6E6"/><path d="M9.57014 12.2938C9.32199 12.2938 9.07361 12.3849 8.88402 12.5672C8.50485 12.9317 8.50485 13.522 8.88379 13.8865L13.6135 18.4332C13.9926 18.7977 14.6068 18.7977 14.9859 18.4332L19.7156 13.8865C20.0948 13.522 20.0948 12.9317 19.7156 12.5672C19.3364 12.2027 18.7223 12.2027 18.3432 12.5672L14.2998 16.454L10.2563 12.5672C10.0669 12.3849 9.81829 12.2938 9.57014 12.2938Z" fill="#6B6B6B"/></g><defs><clipPath id="clip0"><path fill="#fff" transform="rotate(-180 14.15 14)" d="M0 0H28V28H0z"/></clipPath></defs></svg>