<svg width="40" height="40" viewBox="0 0 40 40" fill="none" xmlns="http://www.w3.org/2000/svg"><path fill-rule="evenodd" clip-rule="evenodd" d="M30.5952 13.418H37.9996C37.9996 7.473 34.4374 4 28.4019 4H12.5977C6.56218 4 3 7.473 3 13.3422V26.1574C3 32.0266 6.56218 35.4996 12.5977 35.4996H28.4019C34.4374 35.4996 37.9996 32.0266 37.9996 26.1574V25.6115H30.5952C27.1588 25.6115 24.3731 22.8954 24.3731 19.5451C24.3731 16.1947 27.1588 13.4787 30.5952 13.4787V13.418ZM30.5955 16.0266H36.6932C37.4149 16.0266 37.9999 16.597 37.9999 17.3006V21.729C37.9915 22.4292 37.4114 22.9948 36.6932 23.003H30.7355C28.9959 23.0258 27.4746 21.8645 27.08 20.2124C26.8824 19.1869 27.1598 18.1286 27.8379 17.3213C28.5159 16.5139 29.5253 16.04 30.5955 16.0266ZM30.8601 20.6827H31.4357C32.1745 20.6827 32.7734 20.0987 32.7734 19.3784C32.7734 18.6581 32.1745 18.0741 31.4357 18.0741H30.8601C30.5068 18.0701 30.1664 18.2041 29.9151 18.4463C29.6638 18.6885 29.5223 19.0187 29.5223 19.3632C29.5223 20.086 30.1188 20.6744 30.8601 20.6827ZM11.2898 13.4181H21.1675C21.9063 13.4181 22.5053 12.8342 22.5053 12.1139C22.5053 11.3936 21.9063 10.8096 21.1675 10.8096H11.2898C10.557 10.8096 9.96059 11.3843 9.95207 12.0987C9.95202 12.8215 10.5485 13.4098 11.2898 13.4181Z" fill="#6B6B6B"/></svg>