<svg width="20" height="20" viewBox="0 0 20 20" fill="none" xmlns="http://www.w3.org/2000/svg"><path d="M10 0.5C4.76 0.5 0.5 4.76 0.5 10C0.5 15.24 4.76 19.5 10 19.5C15.24 19.5 19.5 15.24 19.5 10C19.5 4.76 15.24 0.5 10 0.5ZM14.8 7.88L9.72 13.66C9.54 13.86 9.3 13.98 9.04 13.98C9.02 13.98 9.02 13.98 9 13.98C8.76 13.98 8.52 13.88 8.34 13.7L5.24 10.58C4.88 10.22 4.88 9.62 5.24 9.26C5.6 8.9 6.2 8.9 6.56 9.26L8.98 11.68L13.4 6.64C13.74 6.24 14.34 6.22 14.72 6.56C15.12 6.9 15.16 7.48 14.8 7.88Z" fill="url(#paint0_linear)"/><defs><linearGradient id="paint0_linear" x1="1.387" y1=".5" x2="5.663" y2="22.135" gradientUnits="userSpaceOnUse"><stop stop-color="#969338"/><stop offset="1" stop-color="#787632"/></linearGradient></defs></svg>