<svg width="40" height="40" viewBox="0 0 40 40" fill="none" xmlns="http://www.w3.org/2000/svg"><path d="M39.4118 9.33742C39.4118 8.04471 38.367 7 37.0743 7H3.33742C2.04472 7 1 8.04471 1 9.33742V29.778C1 31.0707 2.04472 32.1154 3.33742 32.1154H37.0743C38.367 32.1154 39.4118 31.0707 39.4118 29.778V9.33742ZM6.01252 23.1034C6.01252 23.3144 5.85423 23.4833 5.64318 23.4833C5.43213 23.4833 5.27384 23.3144 5.27384 23.1034V21.5363C5.27384 21.3253 5.43213 21.1564 5.64318 21.1564C5.85423 21.1564 6.01252 21.3253 6.01252 21.5363V23.1034ZM7.59543 23.1034C7.59543 23.3144 7.43714 23.4833 7.22608 23.4833C7.01503 23.4833 6.85674 23.3144 6.85674 23.1034V21.5363C6.85674 21.3253 7.01503 21.1564 7.22608 21.1564C7.43714 21.1564 7.59543 21.3253 7.59543 21.5363V23.1034ZM9.17833 23.1034C9.17833 23.3144 8.99366 23.4833 8.7826 23.4833C8.57155 23.4833 8.38688 23.3144 8.38688 23.1034V21.5363C8.38688 21.3253 8.57155 21.1564 8.7826 21.1564C8.99366 21.1564 9.17833 21.3253 9.17833 21.5363V23.1034ZM10.7085 23.1034C10.7085 23.3144 10.5502 23.4833 10.3391 23.4833C10.1281 23.4833 9.96978 23.3144 9.96978 23.1034V21.5363C9.96978 21.3253 10.1281 21.1564 10.3391 21.1564C10.5502 21.1564 10.7085 21.3253 10.7085 21.5363V23.1034ZM11.711 17.8482C11.711 18.6449 11.062 19.2939 10.2653 19.2939H6.24468C5.44795 19.2939 4.79897 18.6449 4.79897 17.8482V15.0939C4.79897 14.2972 5.44795 13.6482 6.24468 13.6482H10.2653C11.062 13.6482 11.711 14.2972 11.711 15.0939V17.8482ZM13.8215 23.1034C13.8215 23.3144 13.6632 23.4833 13.4522 23.4833C13.2411 23.4833 13.0828 23.3144 13.0828 23.1034V21.5363C13.0828 21.3253 13.2411 21.1564 13.4522 21.1564C13.6632 21.1564 13.8215 21.3253 13.8215 21.5363V23.1034ZM15.4044 23.1034C15.4044 23.3144 15.2197 23.4833 15.0087 23.4833C14.7976 23.4833 14.613 23.3144 14.613 23.1034V21.5363C14.613 21.3253 14.7976 21.1564 15.0087 21.1564C15.2197 21.1564 15.4044 21.3253 15.4044 21.5363V23.1034ZM16.5124 26.2059C16.5124 26.4169 16.3278 26.5858 16.1167 26.5858C15.9057 26.5858 15.721 26.4169 15.721 26.2059V24.9079C15.721 24.6968 15.9057 24.528 16.1167 24.528C16.3278 24.528 16.5124 24.6968 16.5124 24.9079V26.2059ZM16.9345 23.1034C16.9345 23.3144 16.7763 23.4833 16.5652 23.4833C16.3542 23.4833 16.1959 23.3144 16.1959 23.1034V21.5363C16.1959 21.3253 16.3542 21.1564 16.5652 21.1564C16.7763 21.1564 16.9345 21.3253 16.9345 21.5363V23.1034ZM18.0953 26.2059C18.0953 26.4169 17.9371 26.5858 17.726 26.5858C17.5149 26.5858 17.3567 26.4169 17.3567 26.2059V24.9079C17.3567 24.6968 17.5149 24.528 17.726 24.528C17.9371 24.528 18.0953 24.6968 18.0953 24.9079V26.2059ZM18.5175 23.1034C18.5175 23.3144 18.3328 23.4833 18.1217 23.4833C17.9107 23.4833 17.726 23.3144 17.726 23.1034V21.5363C17.726 21.3253 17.9107 21.1564 18.1217 21.1564C18.3328 21.1564 18.5175 21.3253 18.5175 21.5363V23.1034ZM18.9026 10.9573H35.0852C35.2962 10.9573 35.4651 11.1419 35.4651 11.353C35.4651 11.564 35.2962 11.7487 35.0852 11.7487H18.9026C18.6916 11.7487 18.5227 11.564 18.5227 11.353C18.5227 11.1419 18.6968 10.9573 18.9026 10.9573ZM34.3465 21.5363V23.1034C34.3465 23.3144 34.1882 23.4833 33.9771 23.4833C33.7661 23.4833 33.6078 23.3144 33.6078 23.1034V21.5363C33.6078 21.3253 33.7661 21.1564 33.9771 21.1564C34.1882 21.1564 34.3465 21.3305 34.3465 21.5363ZM32.7636 21.5363V23.1034C32.7636 23.3144 32.6053 23.4833 32.3942 23.4833C32.1832 23.4833 32.0249 23.3144 32.0249 23.1034V21.5363C32.0249 21.3253 32.1832 21.1564 32.3942 21.1564C32.6053 21.1564 32.7636 21.3305 32.7636 21.5363ZM31.2334 21.5363V23.1034C31.2334 23.3144 31.0488 23.4833 30.8377 23.4833C30.6267 23.4833 30.442 23.3144 30.442 23.1034V21.5363C30.442 21.3253 30.6267 21.1564 30.8377 21.1564C31.0488 21.1564 31.2334 21.3305 31.2334 21.5363ZM29.6505 21.5363V23.1034C29.6505 23.3144 29.4922 23.4833 29.2812 23.4833C29.0701 23.4833 28.9118 23.3144 28.9118 23.1034V21.5363C28.9118 21.3253 29.0701 21.1564 29.2812 21.1564C29.4922 21.1564 29.6505 21.3305 29.6505 21.5363ZM20.0845 25.0662L19.2245 26.4486C19.1506 26.5647 19.0293 26.628 18.9026 26.628C18.834 26.628 18.7654 26.6069 18.7021 26.57C18.5227 26.4591 18.47 26.227 18.5808 26.0476L19.4408 24.6652C19.5516 24.4858 19.7838 24.433 19.9632 24.5438C20.1426 24.6546 20.1953 24.8921 20.0845 25.0662ZM21.3139 26.2059C21.3139 26.4169 21.1556 26.5858 20.9446 26.5858C20.7335 26.5858 20.5752 26.4169 20.5752 26.2059V24.9079C20.5752 24.6968 20.7335 24.528 20.9446 24.528C21.1556 24.528 21.3139 24.6968 21.3139 24.9079V26.2059ZM21.6305 23.1034C21.6305 23.3144 21.4722 23.4833 21.2611 23.4833C21.0501 23.4833 20.8918 23.3144 20.8918 23.1034V21.5363C20.8918 21.3253 21.0501 21.1564 21.2611 21.1564C21.4722 21.1564 21.6305 21.3253 21.6305 21.5363V23.1034ZM22.9496 26.2059C22.9496 26.4169 22.7649 26.5858 22.5539 26.5858C22.3428 26.5858 22.1581 26.4169 22.1581 26.2059V24.9079C22.1581 24.6968 22.3428 24.528 22.5539 24.528C22.7649 24.528 22.9496 24.6968 22.9496 24.9079V26.2059ZM23.2134 23.1034C23.2134 23.3144 23.0551 23.4833 22.844 23.4833C22.633 23.4833 22.4747 23.3144 22.4747 23.1034V21.5363C22.4747 21.3253 22.633 21.1564 22.844 21.1564C23.0551 21.1564 23.2134 21.3253 23.2134 21.5363V23.1034ZM24.7963 23.1034C24.7963 23.3144 24.6116 23.4833 24.4006 23.4833C24.1895 23.4833 24.0048 23.3144 24.0048 23.1034V21.5363C24.0048 21.3253 24.1895 21.1564 24.4006 21.1564C24.6116 21.1564 24.7963 21.3253 24.7963 21.5363V23.1034ZM26.3264 23.1034C26.3264 23.3144 26.1681 23.4833 25.9571 23.4833C25.746 23.4833 25.5877 23.3144 25.5877 23.1034V21.5363C25.5877 21.3253 25.746 21.1564 25.9571 21.1564C26.1681 21.1564 26.3264 21.3253 26.3264 21.5363V23.1034ZM33.6975 30.2476C33.1698 30.2476 32.6686 30.0629 32.2676 29.7305C31.8771 30.0523 31.3759 30.2476 30.8324 30.2476C29.5925 30.2476 28.5794 29.2345 28.5794 27.9946C28.5794 26.7546 29.5925 25.7416 30.8324 25.7416C31.3759 25.7416 31.8771 25.9368 32.2676 26.2586C32.6686 25.9262 33.1698 25.7416 33.6975 25.7416C34.9374 25.7416 35.9505 26.7546 35.9505 27.9946C35.9505 29.2345 34.9374 30.2476 33.6975 30.2476Z" fill="#6B6B6B"/><path d="M33.6976 26.5012C33.3546 26.5012 33.0275 26.6226 32.7637 26.8336C32.9694 27.1713 33.0908 27.5723 33.0908 27.9944C33.0908 28.4165 32.9694 28.8175 32.7637 29.1552C33.0275 29.3663 33.3546 29.4876 33.6976 29.4876C34.5207 29.4876 35.1908 28.8175 35.1908 27.9944C35.1908 27.1713 34.5207 26.5012 33.6976 26.5012Z" fill="#6B6B6B"/><path d="M30.8311 26.5012C30.008 26.5012 29.3379 27.1713 29.3379 27.9944C29.3379 28.8175 30.008 29.4876 30.8311 29.4876C31.6542 29.4876 32.3243 28.8175 32.3243 27.9944C32.3243 27.1713 31.6595 26.5012 30.8311 26.5012Z" fill="#6B6B6B"/></svg>