<svg version="1.1" id="Layer_1" xmlns="http://www.w3.org/2000/svg" x="0" y="0" viewBox="0 0 512 512" xml:space="preserve"><path fill="#9777a8" d="M0 512L512 512 512 0 0 0z"/><g fill="#fff"><path d="M397.241,476.69c-43.811,0-79.448-35.646-79.448-79.448c0-4.873,3.946-8.828,8.828-8.828 c4.882,0,8.828,3.955,8.828,8.828c0,34.074,27.727,61.793,61.793,61.793s61.793-27.719,61.793-61.793 s-27.727-61.793-61.793-61.793c-43.811,0-79.448-35.646-79.448-79.448s35.637-79.448,79.448-79.448S476.69,212.198,476.69,256 c0,4.873-3.946,8.828-8.828,8.828c-4.882,0-8.828-3.955-8.828-8.828c0-34.074-27.727-61.793-61.793-61.793 S335.448,221.926,335.448,256s27.727,61.793,61.793,61.793c43.811,0,79.448,35.646,79.448,79.448S441.053,476.69,397.241,476.69"/><path d="M211.862,476.69c-43.811,0-79.448-35.646-79.448-79.448c0-4.873,3.946-8.828,8.828-8.828 s8.828,3.955,8.828,8.828c0,34.074,27.727,61.793,61.793,61.793s61.793-27.719,61.793-61.793V185.379 c0-4.873,3.946-8.828,8.828-8.828s8.828,3.955,8.828,8.828v211.862C291.31,441.044,255.673,476.69,211.862,476.69"/></g></svg>